<svg width="110" height="39" viewBox="0 0 110 39" fill="none" xmlns="http://www.w3.org/2000/svg">
<path d="M7.97379 16.1231C7.97379 17.1063 7.17671 17.9034 6.19348 17.9034V17.9034C5.21024 17.9034 4.41316 17.1063 4.41316 16.1231V8.72603C4.41316 7.50737 3.42524 6.51945 2.20658 6.51945H1.32338C0.592496 6.51945 0 5.92695 0 5.19607V5.19607C0 4.45119 0.617656 3.86549 1.35695 3.77439C1.49958 3.75681 1.6407 3.73571 1.78031 3.71107C2.36539 3.59405 2.8836 3.40182 3.33495 3.13435C3.80301 2.85017 4.19585 2.48241 4.51346 2.03106C4.60734 1.89765 4.69173 1.75476 4.76662 1.60237C5.099 0.926051 5.69782 0.351047 6.4514 0.351047V0.351047C7.29219 0.351047 7.97379 1.03264 7.97379 1.87344V16.1231Z" fill="white"/>
<path d="M13.5821 15.9726C13.5821 14.9063 14.4465 14.0419 15.5129 14.0419H15.5881C16.6544 14.0419 17.5189 14.9063 17.5189 15.9726V15.9726C17.5189 17.039 16.6544 17.9034 15.5881 17.9034H15.5129C14.4465 17.9034 13.5821 17.039 13.5821 15.9726V15.9726Z" fill="white"/>
<path d="M21.6609 7.09617C20.726 7.09617 19.9356 6.34848 20.0782 5.42452C20.1375 5.04076 20.2232 4.6702 20.3353 4.31286C20.6027 3.44361 21.0039 2.69136 21.5389 2.05613C22.0738 1.40419 22.7425 0.902693 23.5448 0.551646C24.364 0.183882 25.3001 0 26.3532 0C27.1556 0 27.9162 0.125374 28.635 0.376122C29.3706 0.626871 30.0141 0.986277 30.5658 1.45434C31.1174 1.9224 31.5521 2.49912 31.8697 3.1845C32.204 3.86988 32.3712 4.63884 32.3712 5.49138C32.3712 6.37736 32.2291 7.13796 31.9449 7.77319C31.6607 8.40842 31.2846 8.97678 30.8165 9.47828C30.3485 9.96306 29.8135 10.406 29.2117 10.8072C28.6267 11.2084 28.0332 11.6096 27.4314 12.0108C26.8296 12.3953 26.2446 12.8132 25.6762 13.2646V13.2646C24.9614 13.8322 25.4473 14.8443 26.3601 14.8443H30.9419C31.7867 14.8443 32.4715 15.5291 32.4715 16.3738V16.3738C32.4715 17.2186 31.7867 17.9034 30.9419 17.9034H22.2895C20.7947 17.9034 19.4811 16.6438 20.0093 15.2455V15.2455C20.3102 14.4932 20.7114 13.8246 21.2129 13.2395C21.7144 12.6377 22.2995 12.0861 22.9681 11.5846C23.6535 11.0831 24.3723 10.5732 25.1246 10.055C25.509 9.78753 25.9186 9.52007 26.3532 9.2526C26.7879 8.96842 27.1807 8.65916 27.5317 8.32483C27.8995 7.9905 28.2004 7.61438 28.4344 7.19647C28.6852 6.77855 28.8106 6.30213 28.8106 5.7672C28.8106 4.91466 28.5598 4.25436 28.0583 3.7863C27.5735 3.30152 26.9467 3.05913 26.1777 3.05913C25.6595 3.05913 25.2165 3.1845 24.8487 3.43525C24.4977 3.66928 24.2135 3.98689 23.9962 4.38809C23.7789 4.77257 23.6201 5.2072 23.5198 5.69198V5.69198C23.3827 6.45945 22.7624 7.09617 21.9828 7.09617H21.6609Z" fill="white"/>
<path d="M50.8258 11.4341C50.8258 10.8825 50.7673 10.3559 50.6503 9.8544C50.5333 9.3529 50.3494 8.90991 50.0987 8.52543C49.8479 8.14095 49.5303 7.84005 49.1458 7.62274C48.7781 7.38871 48.3267 7.27169 47.7918 7.27169C47.2736 7.27169 46.8222 7.38871 46.4377 7.62274C46.0533 7.84005 45.7357 8.14095 45.4849 8.52543C45.2342 8.90991 45.0503 9.3529 44.9333 9.8544C44.8162 10.3559 44.7577 10.8825 44.7577 11.4341C44.7577 11.969 44.8162 12.4873 44.9333 12.9887C45.0503 13.4902 45.2342 13.9332 45.4849 14.3177C45.7357 14.7022 46.0533 15.0114 46.4377 15.2455C46.8222 15.4628 47.2736 15.5715 47.7918 15.5715C48.3267 15.5715 48.7781 15.4628 49.1458 15.2455C49.5303 15.0114 49.8479 14.7022 50.0987 14.3177C50.3494 13.9332 50.5333 13.4902 50.6503 12.9887C50.7673 12.4873 50.8258 11.969 50.8258 11.4341ZM41.3225 1.78031C41.3225 0.797075 42.1196 0 43.1028 0V0C44.086 0 44.8831 0.797073 44.8831 1.78031V6.48694C44.8831 6.50489 44.8977 6.51945 44.9156 6.51945V6.51945C44.9266 6.51945 44.9369 6.51385 44.9429 6.50465C45.3765 5.84363 45.9584 5.36378 46.6885 5.06511C47.4407 4.7475 48.2181 4.58869 49.0204 4.58869C49.6724 4.58869 50.316 4.72242 50.9512 4.98988C51.5864 5.25735 52.1548 5.66691 52.6563 6.21855C53.1745 6.7702 53.5924 7.48065 53.91 8.34991C54.2276 9.20245 54.3865 10.2222 54.3865 11.409C54.3865 12.5959 54.2276 13.624 53.91 14.4932C53.5924 15.3458 53.1745 16.0479 52.6563 16.5995C52.1548 17.1512 51.5864 17.5607 50.9512 17.8282C50.316 18.0956 49.6724 18.2294 49.0204 18.2294C48.0676 18.2294 47.2151 18.0789 46.4628 17.778C45.7164 17.4795 45.151 16.9751 44.7667 16.2651C44.7612 16.2549 44.7505 16.2485 44.7389 16.2485V16.2485C44.7216 16.2485 44.7076 16.2625 44.7076 16.2798V17.0759C44.7076 17.5329 44.3371 17.9034 43.8801 17.9034H43.015C42.0803 17.9034 41.3225 17.1456 41.3225 16.2109V1.78031Z" fill="white"/>
<path d="M60.3123 1.46688C60.3123 2.27701 59.6556 2.93375 58.8455 2.93375H58.2186C57.4085 2.93375 56.7517 2.27701 56.7517 1.46688V1.46688C56.7517 0.656743 57.4085 0 58.2186 0H58.8455C59.6556 0 60.3123 0.656743 60.3123 1.46688V1.46688ZM56.7517 6.72005C56.7517 5.73681 57.5488 4.93974 58.532 4.93974V4.93974C59.5153 4.93974 60.3123 5.73681 60.3123 6.72005V16.1231C60.3123 17.1063 59.5153 17.9034 58.532 17.9034V17.9034C57.5488 17.9034 56.7517 17.1063 56.7517 16.1231V6.72005Z" fill="white"/>
<path d="M63.2163 1.78031C63.2163 0.797076 64.0134 0 64.9966 0V0C65.9799 0 66.7769 0.797072 66.7769 1.78031V16.1231C66.7769 17.1063 65.9799 17.9034 64.9966 17.9034V17.9034C64.0134 17.9034 63.2163 17.1063 63.2163 16.1231V1.78031Z" fill="white"/>
<path d="M69.6809 1.78032C69.6809 0.797076 70.478 0 71.4612 0V0C72.4445 0 73.2415 0.797074 73.2415 1.78031V16.1231C73.2415 17.1063 72.4445 17.9034 71.4612 17.9034V17.9034C70.478 17.9034 69.6809 17.1063 69.6809 16.1231V1.78032Z" fill="white"/>
<path d="M79.7061 1.46688C79.7061 2.27701 79.0494 2.93375 78.2392 2.93375H77.6124C76.8022 2.93375 76.1455 2.27701 76.1455 1.46688V1.46688C76.1455 0.656743 76.8022 0 77.6124 0H78.2392C79.0494 0 79.7061 0.656743 79.7061 1.46688V1.46688ZM76.1455 6.72005C76.1455 5.73681 76.9426 4.93974 77.9258 4.93974V4.93974C78.9091 4.93974 79.7061 5.73681 79.7061 6.72005V16.1231C79.7061 17.1063 78.9091 17.9034 77.9258 17.9034V17.9034C76.9426 17.9034 76.1455 17.1063 76.1455 16.1231V6.72005Z" fill="white"/>
<path d="M85.6692 11.4341C85.6692 11.9523 85.7194 12.4622 85.8197 12.9637C85.92 13.4485 86.0871 13.8914 86.3212 14.2926C86.5719 14.6771 86.8979 14.9864 87.2991 15.2204C87.7003 15.4544 88.2018 15.5715 88.8036 15.5715C89.4054 15.5715 89.9069 15.4544 90.3081 15.2204C90.726 14.9864 91.0519 14.6771 91.286 14.2926C91.5367 13.8914 91.7123 13.4485 91.8126 12.9637C91.9128 12.4622 91.963 11.9523 91.963 11.4341C91.963 10.9159 91.9128 10.406 91.8126 9.90455C91.7123 9.40305 91.5367 8.96006 91.286 8.57558C91.0519 8.1911 90.726 7.88185 90.3081 7.64781C89.9069 7.39707 89.4054 7.27169 88.8036 7.27169C88.2018 7.27169 87.7003 7.39707 87.2991 7.64781C86.8979 7.88185 86.5719 8.1911 86.3212 8.57558C86.0871 8.96006 85.92 9.40305 85.8197 9.90455C85.7194 10.406 85.6692 10.9159 85.6692 11.4341ZM82.1086 11.4341C82.1086 10.3977 82.2674 9.46156 82.585 8.62573C82.9026 7.77319 83.354 7.05438 83.9391 6.4693C84.5241 5.8675 85.2262 5.4078 86.0453 5.09018C86.8645 4.75585 87.7839 4.58869 88.8036 4.58869C89.8233 4.58869 90.7427 4.75585 91.5618 5.09018C92.3976 5.4078 93.1081 5.8675 93.6932 6.4693C94.2782 7.05438 94.7296 7.77319 95.0472 8.62573C95.3648 9.46156 95.5236 10.3977 95.5236 11.4341C95.5236 12.4705 95.3648 13.4067 95.0472 14.2425C94.7296 15.0783 94.2782 15.7971 93.6932 16.3989C93.1081 16.984 92.3976 17.4353 91.5618 17.753C90.7427 18.0706 89.8233 18.2294 88.8036 18.2294C87.7839 18.2294 86.8645 18.0706 86.0453 17.753C85.2262 17.4353 84.5241 16.984 83.9391 16.3989C83.354 15.7971 82.9026 15.0783 82.585 14.2425C82.2674 13.4067 82.1086 12.4705 82.1086 11.4341Z" fill="white"/>
<path d="M97.8387 6.63228C97.8387 5.69751 98.5965 4.93974 99.5313 4.93974H100.321C100.82 4.93974 101.224 5.34389 101.224 5.84243V6.69709C101.224 6.72362 101.245 6.74512 101.272 6.74512V6.74512C101.289 6.74512 101.304 6.7362 101.313 6.72178C101.763 5.98163 102.343 5.44612 103.054 5.11526C103.773 4.76421 104.509 4.58869 105.261 4.58869C106.214 4.58869 106.991 4.72242 107.593 4.98988C108.211 5.24063 108.696 5.60004 109.047 6.0681C109.398 6.51945 109.641 7.07945 109.774 7.74811C109.925 8.40006 110 9.12723 110 9.92962V16.1231C110 17.1063 109.203 17.9034 108.22 17.9034V17.9034C107.236 17.9034 106.439 17.1063 106.439 16.1231V10.5816C106.439 9.51171 106.272 8.71767 105.938 8.19946C105.604 7.66453 105.01 7.39707 104.158 7.39707C103.188 7.39707 102.486 7.68961 102.051 8.27468C101.617 8.84305 101.399 9.78753 101.399 11.1081V16.1231C101.399 17.1063 100.602 17.9034 99.619 17.9034V17.9034C98.6358 17.9034 97.8387 17.1063 97.8387 16.1231V6.63228Z" fill="white"/>
<path d="M0.556239 23.7835C0.556239 23.5882 0.714538 23.4299 0.90981 23.4299H0.972205C1.13302 23.4299 1.26338 23.5603 1.26338 23.7211V24.002C1.26338 24.0077 1.26797 24.0123 1.27362 24.0123V24.0123C1.27754 24.0123 1.28111 24.01 1.28285 24.0065C1.39945 23.771 1.58153 23.601 1.8291 23.4965C2.07868 23.3856 2.35321 23.3301 2.65271 23.3301C2.98548 23.3301 3.27389 23.3911 3.51792 23.5131C3.7675 23.6351 3.97271 23.8015 4.13355 24.0123C4.29994 24.2175 4.42473 24.456 4.50792 24.7277C4.59111 24.9995 4.63271 25.2879 4.63271 25.5929C4.63271 25.898 4.59111 26.1864 4.50792 26.4582C4.43027 26.7299 4.30826 26.9684 4.14187 27.1736C3.98103 27.3733 3.77582 27.5314 3.52624 27.6478C3.28221 27.7643 2.99658 27.8225 2.66935 27.8225C2.56397 27.8225 2.44473 27.8114 2.31162 27.7893C2.18405 27.7671 2.05649 27.731 1.92893 27.6811C1.80137 27.6312 1.67935 27.5646 1.56288 27.4814C1.45344 27.3939 1.36019 27.2874 1.28315 27.1621C1.2812 27.1589 1.27775 27.157 1.27403 27.157V27.157C1.26815 27.157 1.26338 27.1618 1.26338 27.1676V29.0164C1.26338 29.2116 1.10508 29.3699 0.90981 29.3699V29.3699C0.714538 29.3699 0.556239 29.2116 0.556239 29.0164V23.7835ZM3.88397 25.543C3.88397 25.3434 3.85624 25.1493 3.80078 24.9607C3.75086 24.7666 3.67044 24.5946 3.55952 24.4449C3.45414 24.2951 3.31548 24.1759 3.14355 24.0872C2.97716 23.9984 2.78027 23.954 2.55288 23.954C2.31439 23.954 2.11195 24.0012 1.94557 24.0955C1.77918 24.1898 1.6433 24.3145 1.53792 24.4698C1.43254 24.6196 1.35489 24.7915 1.30498 24.9856C1.26061 25.1798 1.23842 25.3766 1.23842 25.5763C1.23842 25.7871 1.26338 25.9923 1.3133 26.1919C1.36321 26.3861 1.44086 26.558 1.54624 26.7077C1.65716 26.8575 1.79859 26.9795 1.97052 27.0738C2.14246 27.1625 2.35044 27.2069 2.59447 27.2069C2.83851 27.2069 3.04094 27.1598 3.20179 27.0655C3.36817 26.9712 3.50128 26.8464 3.60111 26.6911C3.70094 26.5358 3.77305 26.3583 3.81742 26.1587C3.86178 25.959 3.88397 25.7538 3.88397 25.543Z" fill="white"/>
<path d="M7.95855 25.1687C8.22419 25.1687 8.44081 24.9372 8.33292 24.6945V24.6945C8.27192 24.5447 8.18595 24.4172 8.07503 24.3118C7.96965 24.2008 7.84208 24.1149 7.69234 24.0539C7.54814 23.9873 7.3873 23.954 7.20982 23.954C7.02679 23.954 6.8604 23.9873 6.71066 24.0539C6.56645 24.1149 6.44166 24.2008 6.33629 24.3118C6.23091 24.4227 6.14772 24.553 6.08671 24.7028V24.7028C5.98538 24.9423 6.19902 25.1687 6.45907 25.1687H7.95855ZM8.71182 26.3666C8.92934 26.3666 9.09577 26.5673 9.0157 26.7695C8.90195 27.0568 8.73259 27.2858 8.50763 27.4565C8.18595 27.7005 7.78108 27.8225 7.29301 27.8225C6.94914 27.8225 6.64965 27.7671 6.39452 27.6561C6.14494 27.5452 5.93419 27.3899 5.76225 27.1903C5.59032 26.9906 5.45998 26.7521 5.37124 26.4748C5.28805 26.1975 5.24091 25.8952 5.22982 25.568C5.22982 25.2408 5.27973 24.9413 5.37956 24.6695C5.4794 24.3977 5.61805 24.162 5.79553 23.9624C5.97856 23.7627 6.19209 23.6074 6.43612 23.4965C6.6857 23.3856 6.95746 23.3301 7.25141 23.3301C7.6341 23.3301 7.95024 23.4105 8.19982 23.5714C8.45494 23.7266 8.65738 23.9263 8.80713 24.1703C8.96242 24.4144 9.0678 24.6806 9.12326 24.969V24.969C9.2192 25.4225 8.83249 25.7926 8.36895 25.7926H6.52562C6.22092 25.7926 5.96016 26.0407 6.04511 26.3334V26.3334C6.09503 26.4998 6.17545 26.6495 6.28637 26.7826C6.3973 26.9102 6.53872 27.0128 6.71066 27.0904C6.88259 27.1681 7.08503 27.2069 7.31797 27.2069C7.61746 27.2069 7.8615 27.1376 8.05007 26.9989C8.17779 26.9077 8.2767 26.7852 8.3468 26.6316C8.41438 26.4834 8.549 26.3666 8.71182 26.3666V26.3666Z" fill="white"/>
<path d="M10.4469 25.5846C10.4469 25.8453 10.4802 26.0782 10.5468 26.2835C10.6189 26.4831 10.7159 26.6523 10.838 26.7909C10.96 26.924 11.1014 27.0266 11.2622 27.0987C11.4286 27.1708 11.6033 27.2069 11.7864 27.2069C11.9694 27.2069 12.1413 27.1708 12.3022 27.0987C12.4685 27.0266 12.6127 26.924 12.7348 26.7909C12.8568 26.6523 12.9511 26.4831 13.0176 26.2835C13.0897 26.0782 13.1258 25.8453 13.1258 25.5846C13.1258 25.324 13.0897 25.0938 13.0176 24.8941C12.9511 24.6889 12.8568 24.517 12.7348 24.3783C12.6127 24.2397 12.4685 24.1343 12.3022 24.0622C12.1413 23.9901 11.9694 23.954 11.7864 23.954C11.6033 23.954 11.4286 23.9901 11.2622 24.0622C11.1014 24.1343 10.96 24.2397 10.838 24.3783C10.7159 24.517 10.6189 24.6889 10.5468 24.8941C10.4802 25.0938 10.4469 25.324 10.4469 25.5846ZM9.6982 25.5846C9.6982 25.2685 9.74257 24.9745 9.83131 24.7028C9.92005 24.4255 10.0532 24.187 10.2306 23.9873C10.4081 23.7821 10.6272 23.6213 10.8879 23.5048C11.1485 23.3883 11.448 23.3301 11.7864 23.3301C12.1302 23.3301 12.4297 23.3883 12.6848 23.5048C12.9455 23.6213 13.1646 23.7821 13.3421 23.9873C13.5195 24.187 13.6527 24.4255 13.7414 24.7028C13.8301 24.9745 13.8745 25.2685 13.8745 25.5846C13.8745 25.9008 13.8301 26.1947 13.7414 26.4665C13.6527 26.7382 13.5195 26.9767 13.3421 27.1819C13.1646 27.3816 12.9455 27.5397 12.6848 27.6561C12.4297 27.7671 12.1302 27.8225 11.7864 27.8225C11.448 27.8225 11.1485 27.7671 10.8879 27.6561C10.6272 27.5397 10.4081 27.3816 10.2306 27.1819C10.0532 26.9767 9.92005 26.7382 9.83131 26.4665C9.74257 26.1947 9.6982 25.9008 9.6982 25.5846Z" fill="white"/>
<path d="M14.7332 23.7835C14.7332 23.5882 14.8915 23.4299 15.0868 23.4299H15.1492C15.31 23.4299 15.4404 23.5603 15.4404 23.7211V24.002C15.4404 24.0077 15.4449 24.0123 15.4506 24.0123V24.0123C15.4545 24.0123 15.4581 24.01 15.4598 24.0065C15.5764 23.771 15.7585 23.601 16.0061 23.4965C16.2557 23.3856 16.5302 23.3301 16.8297 23.3301C17.1625 23.3301 17.4509 23.3911 17.6949 23.5131C17.9445 23.6351 18.1497 23.8015 18.3105 24.0123C18.4769 24.2175 18.6017 24.456 18.6849 24.7277C18.7681 24.9995 18.8097 25.2879 18.8097 25.5929C18.8097 25.898 18.7681 26.1864 18.6849 26.4582C18.6073 26.7299 18.4852 26.9684 18.3188 27.1736C18.158 27.3733 17.9528 27.5314 17.7032 27.6478C17.4592 27.7643 17.1736 27.8225 16.8463 27.8225C16.7409 27.8225 16.6217 27.8114 16.4886 27.7893C16.361 27.7671 16.2335 27.731 16.1059 27.6811C15.9783 27.6312 15.8563 27.5646 15.7399 27.4814C15.6304 27.3939 15.5372 27.2874 15.4601 27.1621C15.4582 27.1589 15.4547 27.157 15.451 27.157V27.157C15.4451 27.157 15.4404 27.1618 15.4404 27.1676V29.0164C15.4404 29.2116 15.2821 29.3699 15.0868 29.3699V29.3699C14.8915 29.3699 14.7332 29.2116 14.7332 29.0164V23.7835ZM18.0609 25.543C18.0609 25.3434 18.0332 25.1493 17.9778 24.9607C17.9278 24.7666 17.8474 24.5946 17.7365 24.4449C17.6311 24.2951 17.4925 24.1759 17.3205 24.0872C17.1541 23.9984 16.9573 23.954 16.7299 23.954C16.4914 23.954 16.2889 24.0012 16.1225 24.0955C15.9562 24.1898 15.8203 24.3145 15.7149 24.4698C15.6095 24.6196 15.5319 24.7915 15.482 24.9856C15.4376 25.1798 15.4154 25.3766 15.4154 25.5763C15.4154 25.7871 15.4404 25.9923 15.4903 26.1919C15.5402 26.3861 15.6178 26.558 15.7232 26.7077C15.8341 26.8575 15.9756 26.9795 16.1475 27.0738C16.3194 27.1625 16.5274 27.2069 16.7715 27.2069C17.0155 27.2069 17.2179 27.1598 17.3788 27.0655C17.5452 26.9712 17.6783 26.8464 17.7781 26.6911C17.8779 26.5358 17.95 26.3583 17.9944 26.1587C18.0388 25.959 18.0609 25.7538 18.0609 25.543Z" fill="white"/>
<path d="M19.6813 22.1446C19.6813 21.9493 19.8396 21.791 20.0349 21.791V21.791C20.2302 21.791 20.3885 21.9493 20.3885 22.1446V27.3774C20.3885 27.5727 20.2302 27.731 20.0349 27.731V27.731C19.8396 27.731 19.6813 27.5727 19.6813 27.3774V22.1446Z" fill="white"/>
<path d="M23.9798 25.1687C24.2454 25.1687 24.462 24.9372 24.3541 24.6945V24.6945C24.2931 24.5447 24.2072 24.4172 24.0962 24.3118C23.9909 24.2008 23.8633 24.1149 23.7135 24.0539C23.5693 23.9873 23.4085 23.954 23.231 23.954C23.048 23.954 22.8816 23.9873 22.7319 24.0539C22.5877 24.1149 22.4629 24.2008 22.3575 24.3118C22.2521 24.4227 22.1689 24.553 22.1079 24.7028V24.7028C22.0066 24.9423 22.2202 25.1687 22.4803 25.1687H23.9798ZM24.733 26.3666C24.9505 26.3666 25.117 26.5673 25.0369 26.7695C24.9232 27.0568 24.7538 27.2858 24.5288 27.4565C24.2072 27.7005 23.8023 27.8225 23.3142 27.8225C22.9703 27.8225 22.6709 27.7671 22.4157 27.6561C22.1661 27.5452 21.9554 27.3899 21.7835 27.1903C21.6115 26.9906 21.4812 26.7521 21.3924 26.4748C21.3093 26.1975 21.2621 25.8952 21.251 25.568C21.251 25.2408 21.3009 24.9413 21.4008 24.6695C21.5006 24.3977 21.6393 24.162 21.8167 23.9624C21.9998 23.7627 22.2133 23.6074 22.4573 23.4965C22.7069 23.3856 22.9787 23.3301 23.2726 23.3301C23.6553 23.3301 23.9714 23.4105 24.221 23.5714C24.4761 23.7266 24.6786 23.9263 24.8283 24.1703C24.9836 24.4144 25.089 24.6806 25.1445 24.969V24.969C25.2404 25.4225 24.8537 25.7926 24.3902 25.7926H22.5468C22.2421 25.7926 21.9814 26.0407 22.0663 26.3334V26.3334C22.1162 26.4998 22.1967 26.6495 22.3076 26.7826C22.4185 26.9102 22.5599 27.0128 22.7319 27.0904C22.9038 27.1681 23.1062 27.2069 23.3392 27.2069C23.6387 27.2069 23.8827 27.1376 24.0713 26.9989C24.199 26.9077 24.2979 26.7852 24.368 26.6316C24.4356 26.4834 24.5702 26.3666 24.733 26.3666V26.3666Z" fill="white"/>
<path d="M32.078 27.5544C32.078 27.6535 32.0263 27.7487 31.9313 27.7772C31.8308 27.8074 31.7106 27.8225 31.5706 27.8225C31.3875 27.8225 31.2406 27.7726 31.1296 27.6728V27.6728C30.9991 27.5422 30.7222 27.4277 30.5674 27.5281C30.4793 27.5852 30.3867 27.6335 30.2894 27.6728C30.0343 27.7726 29.7569 27.8225 29.4575 27.8225C29.2633 27.8225 29.0775 27.8003 28.9001 27.756C28.7281 27.7116 28.5784 27.6423 28.4508 27.548C28.3233 27.4537 28.2206 27.3317 28.143 27.1819C28.0709 27.0266 28.0348 26.8408 28.0348 26.6245C28.0348 26.3805 28.0764 26.1808 28.1596 26.0256C28.2428 25.8703 28.351 25.7455 28.4841 25.6512C28.6227 25.5514 28.778 25.4765 28.95 25.4266C29.1275 25.3766 29.3077 25.335 29.4907 25.3018C29.6848 25.2629 29.8679 25.2352 30.0398 25.2186C30.2173 25.1964 30.3726 25.1687 30.5057 25.1354C30.6388 25.0966 30.7442 25.0439 30.8218 24.9773C30.8995 24.9052 30.9383 24.8026 30.9383 24.6695C30.9383 24.5142 30.9078 24.3894 30.8468 24.2951C30.7913 24.2008 30.7164 24.1287 30.6222 24.0788C30.5334 24.0289 30.4308 23.9956 30.3143 23.979C30.2034 23.9624 30.0925 23.954 29.9816 23.954C29.6821 23.954 29.4325 24.0123 29.2328 24.1287C29.1129 24.1954 29.0259 24.2991 28.972 24.4398C28.9045 24.6162 28.7603 24.7693 28.5715 24.7693V24.7693C28.3695 24.7693 28.2025 24.5991 28.2507 24.403C28.2785 24.29 28.3174 24.1875 28.3676 24.0955C28.4675 23.9124 28.6006 23.7655 28.7669 23.6545C28.9333 23.5381 29.1219 23.4549 29.3327 23.405C29.549 23.355 29.7791 23.3301 30.0232 23.3301C30.2173 23.3301 30.4086 23.344 30.5972 23.3717C30.7913 23.3994 30.966 23.4577 31.1213 23.5464C31.2766 23.6296 31.4014 23.7488 31.4957 23.9041C31.59 24.0594 31.6371 24.2619 31.6371 24.5114V26.7244C31.6371 26.8908 31.6454 27.0128 31.6621 27.0904C31.6843 27.1681 31.7508 27.2069 31.8617 27.2069V27.2069C31.9706 27.2069 32.078 27.2777 32.078 27.3865V27.5544ZM30.93 25.8926C30.93 25.7349 30.7343 25.624 30.5806 25.6595V25.6595C30.4364 25.6872 30.2838 25.7122 30.123 25.7344C29.9677 25.751 29.8096 25.7732 29.6488 25.8009C29.488 25.8231 29.3438 25.8619 29.2162 25.9174C29.0886 25.9729 28.9833 26.0533 28.9001 26.1587C28.8224 26.2585 28.7836 26.3972 28.7836 26.5746C28.7836 26.6911 28.8058 26.7909 28.8501 26.8741C28.9001 26.9518 28.9611 27.0156 29.0332 27.0655C29.1108 27.1154 29.1996 27.1514 29.2994 27.1736C29.3992 27.1958 29.5046 27.2069 29.6155 27.2069C29.8485 27.2069 30.0481 27.1764 30.2145 27.1154C30.3809 27.0488 30.5168 26.9684 30.6222 26.8741C30.7275 26.7743 30.8052 26.6689 30.8551 26.558C30.905 26.4415 30.93 26.3334 30.93 26.2335V25.8926Z" fill="white"/>
<path d="M32.7112 23.7627C32.7112 23.5789 32.8602 23.4299 33.044 23.4299V23.4299C33.2278 23.4299 33.3768 23.5789 33.3768 23.7627V24.3265C33.3768 24.3321 33.3814 24.3367 33.387 24.3367V24.3367C33.3909 24.3367 33.3945 24.3345 33.3962 24.331C33.5676 23.9845 33.7775 23.7285 34.0257 23.563C34.1902 23.4533 34.3837 23.3822 34.6061 23.3497C34.8094 23.3199 34.9741 23.4936 34.9741 23.699V23.699C34.9741 23.9088 34.8029 24.0739 34.5956 24.1057C34.4692 24.125 34.3541 24.1549 34.2503 24.1953C34.0506 24.2729 33.8898 24.3866 33.7678 24.5364C33.6458 24.6861 33.557 24.8692 33.5016 25.0855C33.4461 25.2962 33.4184 25.5403 33.4184 25.8176V27.3774C33.4184 27.5727 33.2601 27.731 33.0648 27.731V27.731C32.8695 27.731 32.7112 27.5727 32.7112 27.3774V23.7627Z" fill="white"/>
<path d="M37.8561 25.1687C38.1218 25.1687 38.3384 24.9372 38.2305 24.6945V24.6945C38.1695 24.5447 38.0835 24.4172 37.9726 24.3118C37.8672 24.2008 37.7397 24.1149 37.5899 24.0539C37.4457 23.9873 37.2849 23.954 37.1074 23.954C36.9244 23.954 36.758 23.9873 36.6082 24.0539C36.464 24.1149 36.3392 24.2008 36.2339 24.3118C36.1285 24.4227 36.0453 24.553 35.9843 24.7028V24.7028C35.883 24.9423 36.0966 25.1687 36.3567 25.1687H37.8561ZM38.6094 26.3666C38.8269 26.3666 38.9934 26.5673 38.9133 26.7695C38.7995 27.0568 38.6302 27.2858 38.4052 27.4565C38.0835 27.7005 37.6787 27.8225 37.1906 27.8225C36.8467 27.8225 36.5472 27.7671 36.2921 27.6561C36.0425 27.5452 35.8318 27.3899 35.6598 27.1903C35.4879 26.9906 35.3576 26.7521 35.2688 26.4748C35.1856 26.1975 35.1385 25.8952 35.1274 25.568C35.1274 25.2408 35.1773 24.9413 35.2771 24.6695C35.377 24.3977 35.5156 24.162 35.6931 23.9624C35.8761 23.7627 36.0897 23.6074 36.3337 23.4965C36.5833 23.3856 36.855 23.3301 37.149 23.3301C37.5317 23.3301 37.8478 23.4105 38.0974 23.5714C38.3525 23.7266 38.555 23.9263 38.7047 24.1703C38.86 24.4144 38.9654 24.6806 39.0208 24.969V24.969C39.1168 25.4225 38.7301 25.7926 38.2665 25.7926H36.4232C36.1185 25.7926 35.8577 26.0407 35.9427 26.3334V26.3334C35.9926 26.4998 36.073 26.6495 36.184 26.7826C36.2949 26.9102 36.4363 27.0128 36.6082 27.0904C36.7802 27.1681 36.9826 27.2069 37.2155 27.2069C37.515 27.2069 37.7591 27.1376 37.9476 26.9989C38.0754 26.9077 38.1743 26.7852 38.2444 26.6316C38.312 26.4834 38.4466 26.3666 38.6094 26.3666V26.3666Z" fill="white"/>
<path d="M42.1858 22.1446C42.1858 21.9493 42.3441 21.791 42.5393 21.791V21.791C42.7346 21.791 42.8929 21.9493 42.8929 22.1446V27.3774C42.8929 27.5727 42.7346 27.731 42.5393 27.731V27.731C42.3441 27.731 42.1858 27.5727 42.1858 27.3774V22.1446Z" fill="white"/>
<path d="M46.4842 25.1687C46.7498 25.1687 46.9664 24.9372 46.8586 24.6945V24.6945C46.7975 24.5447 46.7116 24.4172 46.6007 24.3118C46.4953 24.2008 46.3677 24.1149 46.218 24.0539C46.0738 23.9873 45.9129 23.954 45.7354 23.954C45.5524 23.954 45.386 23.9873 45.2363 24.0539C45.0921 24.1149 44.9673 24.2008 44.8619 24.3118C44.7565 24.4227 44.6733 24.553 44.6123 24.7028V24.7028C44.511 24.9423 44.7247 25.1687 44.9847 25.1687H46.4842ZM47.2375 26.3666C47.455 26.3666 47.6214 26.5673 47.5413 26.7695C47.4276 27.0568 47.2582 27.2858 47.0333 27.4565C46.7116 27.7005 46.3067 27.8225 45.8186 27.8225C45.4748 27.8225 45.1753 27.7671 44.9202 27.6561C44.6706 27.5452 44.4598 27.3899 44.2879 27.1903C44.116 26.9906 43.9856 26.7521 43.8969 26.4748C43.8137 26.1975 43.7665 25.8952 43.7555 25.568C43.7555 25.2408 43.8054 24.9413 43.9052 24.6695C44.005 24.3977 44.1437 24.162 44.3212 23.9624C44.5042 23.7627 44.7177 23.6074 44.9618 23.4965C45.2113 23.3856 45.4831 23.3301 45.777 23.3301C46.1597 23.3301 46.4759 23.4105 46.7254 23.5714C46.9806 23.7266 47.183 23.9263 47.3328 24.1703C47.4881 24.4144 47.5934 24.6806 47.6489 24.969V24.969C47.7448 25.4225 47.3581 25.7926 46.8946 25.7926H45.0513C44.7466 25.7926 44.4858 26.0407 44.5707 26.3334V26.3334C44.6207 26.4998 44.7011 26.6495 44.812 26.7826C44.9229 26.9102 45.0644 27.0128 45.2363 27.0904C45.4082 27.1681 45.6107 27.2069 45.8436 27.2069C46.1431 27.2069 46.3871 27.1376 46.5757 26.9989C46.7034 26.9077 46.8023 26.7852 46.8724 26.6316C46.94 26.4834 47.0746 26.3666 47.2375 26.3666V26.3666Z" fill="white"/>
<path d="M52.267 27.5544C52.267 27.6535 52.2153 27.7487 52.1203 27.7772C52.0198 27.8074 51.8996 27.8225 51.7596 27.8225C51.5765 27.8225 51.4296 27.7726 51.3186 27.6728V27.6728C51.1881 27.5422 50.9112 27.4277 50.7563 27.5281C50.6683 27.5852 50.5757 27.6335 50.4784 27.6728C50.2233 27.7726 49.9459 27.8225 49.6464 27.8225C49.4523 27.8225 49.2665 27.8003 49.089 27.756C48.9171 27.7116 48.7674 27.6423 48.6398 27.548C48.5122 27.4537 48.4096 27.3317 48.332 27.1819C48.2599 27.0266 48.2238 26.8408 48.2238 26.6245C48.2238 26.3805 48.2654 26.1808 48.3486 26.0256C48.4318 25.8703 48.54 25.7455 48.6731 25.6512C48.8117 25.5514 48.967 25.4765 49.139 25.4266C49.3164 25.3766 49.4967 25.335 49.6797 25.3018C49.8738 25.2629 50.0569 25.2352 50.2288 25.2186C50.4063 25.1964 50.5616 25.1687 50.6947 25.1354C50.8278 25.0966 50.9332 25.0439 51.0108 24.9773C51.0885 24.9052 51.1273 24.8026 51.1273 24.6695C51.1273 24.5142 51.0968 24.3894 51.0358 24.2951C50.9803 24.2008 50.9054 24.1287 50.8111 24.0788C50.7224 24.0289 50.6198 23.9956 50.5033 23.979C50.3924 23.9624 50.2815 23.954 50.1706 23.954C49.8711 23.954 49.6215 24.0123 49.4218 24.1287C49.3018 24.1954 49.2149 24.2991 49.161 24.4398C49.0935 24.6162 48.9493 24.7693 48.7604 24.7693V24.7693C48.5585 24.7693 48.3915 24.5991 48.4397 24.403C48.4675 24.29 48.5064 24.1875 48.5566 24.0955C48.6564 23.9124 48.7896 23.7655 48.9559 23.6545C49.1223 23.5381 49.3109 23.4549 49.5217 23.405C49.738 23.355 49.9681 23.3301 50.2122 23.3301C50.4063 23.3301 50.5976 23.344 50.7862 23.3717C50.9803 23.3994 51.155 23.4577 51.3103 23.5464C51.4656 23.6296 51.5904 23.7488 51.6847 23.9041C51.779 24.0594 51.8261 24.2619 51.8261 24.5114V26.7244C51.8261 26.8908 51.8344 27.0128 51.8511 27.0904C51.8733 27.1681 51.9398 27.2069 52.0507 27.2069V27.2069C52.1595 27.2069 52.267 27.2777 52.267 27.3865V27.5544ZM51.119 25.8926C51.119 25.7349 50.9233 25.624 50.7696 25.6595V25.6595C50.6253 25.6872 50.4728 25.7122 50.312 25.7344C50.1567 25.751 49.9986 25.7732 49.8378 25.8009C49.6769 25.8231 49.5327 25.8619 49.4052 25.9174C49.2776 25.9729 49.1722 26.0533 49.089 26.1587C49.0114 26.2585 48.9726 26.3972 48.9726 26.5746C48.9726 26.6911 48.9948 26.7909 49.0391 26.8741C49.089 26.9518 49.1501 27.0156 49.2222 27.0655C49.2998 27.1154 49.3885 27.1514 49.4884 27.1736C49.5882 27.1958 49.6936 27.2069 49.8045 27.2069C50.0375 27.2069 50.2371 27.1764 50.4035 27.1154C50.5699 27.0488 50.7058 26.9684 50.8111 26.8741C50.9165 26.7743 50.9942 26.6689 51.0441 26.558C51.094 26.4415 51.119 26.3334 51.119 26.2335V25.8926Z" fill="white"/>
<path d="M52.9002 23.7627C52.9002 23.5789 53.0492 23.4299 53.233 23.4299V23.4299C53.4168 23.4299 53.5658 23.5789 53.5658 23.7627V24.3265C53.5658 24.3321 53.5703 24.3367 53.576 24.3367V24.3367C53.5799 24.3367 53.5835 24.3345 53.5852 24.331C53.7566 23.9845 53.9665 23.7285 54.2147 23.563C54.3792 23.4533 54.5727 23.3822 54.7951 23.3497C54.9984 23.3199 55.1631 23.4936 55.1631 23.699V23.699C55.1631 23.9088 54.9919 24.0739 54.7846 24.1057C54.6582 24.125 54.5431 24.1549 54.4393 24.1953C54.2396 24.2729 54.0788 24.3866 53.9568 24.5364C53.8347 24.6861 53.746 24.8692 53.6905 25.0855C53.6351 25.2962 53.6074 25.5403 53.6074 25.8176V27.3774C53.6074 27.5727 53.4491 27.731 53.2538 27.731V27.731C53.0585 27.731 52.9002 27.5727 52.9002 27.3774V23.7627Z" fill="white"/>
<path d="M55.8418 23.7627C55.8418 23.5789 55.9908 23.4299 56.1746 23.4299V23.4299C56.3584 23.4299 56.5074 23.5789 56.5074 23.7627V24.1016C56.5074 24.1074 56.5121 24.1121 56.5179 24.1121V24.1121C56.5216 24.1121 56.5252 24.11 56.527 24.1067C56.8211 23.589 57.286 23.3301 57.9216 23.3301C58.2045 23.3301 58.4402 23.3689 58.6288 23.4466C58.8174 23.5242 58.9699 23.6324 59.0863 23.771C59.2028 23.9097 59.2832 24.0761 59.3276 24.2702C59.3775 24.4587 59.4025 24.6695 59.4025 24.9024V27.3774C59.4025 27.5727 59.2442 27.731 59.0489 27.731V27.731C58.8536 27.731 58.6953 27.5727 58.6953 27.3774V24.8193C58.6953 24.553 58.6177 24.3423 58.4624 24.187C58.3071 24.0317 58.0936 23.954 57.8218 23.954C57.6055 23.954 57.4169 23.9873 57.2561 24.0539C57.1008 24.1204 56.9705 24.2147 56.8651 24.3367C56.7597 24.4587 56.6793 24.6029 56.6238 24.7693C56.5739 24.9302 56.5489 25.1077 56.5489 25.3018V27.3774C56.5489 27.5727 56.3907 27.731 56.1954 27.731V27.731C56.0001 27.731 55.8418 27.5727 55.8418 27.3774V23.7627Z" fill="white"/>
<path d="M61.2133 22.3027C61.2133 22.4979 61.055 22.6562 60.8597 22.6562V22.6562C60.6645 22.6562 60.5062 22.4979 60.5062 22.3027V22.1446C60.5062 21.9493 60.6645 21.791 60.8597 21.791V21.791C61.055 21.791 61.2133 21.9493 61.2133 22.1446V22.3027ZM60.5062 23.7835C60.5062 23.5882 60.6645 23.4299 60.8597 23.4299V23.4299C61.055 23.4299 61.2133 23.5882 61.2133 23.7835V27.3774C61.2133 27.5727 61.055 27.731 60.8597 27.731V27.731C60.6645 27.731 60.5062 27.5727 60.5062 27.3774V23.7835Z" fill="white"/>
<path d="M62.3088 23.7627C62.3088 23.5789 62.4578 23.4299 62.6416 23.4299V23.4299C62.8253 23.4299 62.9743 23.5789 62.9743 23.7627V24.1016C62.9743 24.1074 62.979 24.1121 62.9848 24.1121V24.1121C62.9886 24.1121 62.9921 24.11 62.994 24.1067C63.2881 23.589 63.753 23.3301 64.3886 23.3301C64.6715 23.3301 64.9072 23.3689 65.0958 23.4466C65.2843 23.5242 65.4369 23.6324 65.5533 23.771C65.6698 23.9097 65.7502 24.0761 65.7946 24.2702C65.8445 24.4587 65.8695 24.6695 65.8695 24.9024V27.3774C65.8695 27.5727 65.7112 27.731 65.5159 27.731V27.731C65.3206 27.731 65.1623 27.5727 65.1623 27.3774V24.8193C65.1623 24.553 65.0847 24.3423 64.9294 24.187C64.7741 24.0317 64.5606 23.954 64.2888 23.954C64.0725 23.954 63.8839 23.9873 63.7231 24.0539C63.5678 24.1204 63.4374 24.2147 63.3321 24.3367C63.2267 24.4587 63.1463 24.6029 63.0908 24.7693C63.0409 24.9302 63.0159 25.1077 63.0159 25.3018V27.3774C63.0159 27.5727 62.8576 27.731 62.6624 27.731V27.731C62.4671 27.731 62.3088 27.5727 62.3088 27.3774V23.7627Z" fill="white"/>
<path d="M70.642 27.365C70.642 28.0693 70.4811 28.5962 70.1594 28.9456C69.8378 29.295 69.3331 29.4698 68.6453 29.4698C68.4457 29.4698 68.2404 29.4476 68.0297 29.4032C67.8245 29.3588 67.6359 29.2867 67.464 29.1869C67.2976 29.0871 67.1589 28.9567 67.048 28.7959C67.0001 28.7264 66.9615 28.6503 66.9322 28.5674C66.8652 28.3776 67.0334 28.2052 67.2346 28.2052V28.2052C67.4234 28.2052 67.5652 28.3696 67.6803 28.5192C67.683 28.5227 67.6858 28.5262 67.6886 28.5297C67.7662 28.6184 67.8578 28.6905 67.9631 28.746C68.0741 28.8014 68.1933 28.8403 68.3209 28.8624C68.4484 28.8902 68.5704 28.904 68.6869 28.904C68.9199 28.904 69.1167 28.8624 69.2776 28.7793C69.4384 28.7016 69.5715 28.5907 69.6769 28.4465C69.7823 28.3078 69.8572 28.1387 69.9015 27.939C69.9515 27.7393 69.9764 27.5203 69.9764 27.2818V27.0091C69.9764 27.0035 69.9719 26.9989 69.9663 26.9989V26.9989C69.9623 26.9989 69.9587 27.0012 69.957 27.0048C69.835 27.2681 69.6501 27.463 69.4024 27.5896C69.1583 27.7116 68.8977 27.7726 68.6204 27.7726C68.2987 27.7726 68.0186 27.7144 67.7801 27.5979C67.5416 27.4814 67.342 27.3261 67.1811 27.132C67.0203 26.9324 66.8983 26.7022 66.8151 26.4415C66.7374 26.1753 66.6986 25.8952 66.6986 25.6013C66.6986 25.3461 66.7319 25.0855 66.7984 24.8193C66.865 24.5475 66.9759 24.3035 67.1312 24.0872C67.2865 23.8653 67.4917 23.685 67.7468 23.5464C68.002 23.4022 68.3153 23.3301 68.6869 23.3301C68.9587 23.3301 69.2083 23.3911 69.4357 23.5131C69.6622 23.6291 69.8392 23.8057 69.9666 24.0428C69.9675 24.0445 69.9693 24.0456 69.9712 24.0456V24.0456C69.9741 24.0456 69.9764 24.0432 69.9764 24.0403V23.7377C69.9764 23.5677 70.1142 23.4299 70.2842 23.4299H70.3092C70.493 23.4299 70.642 23.5789 70.642 23.7627V27.365ZM68.662 27.157C68.8949 27.157 69.0918 27.1098 69.2526 27.0156C69.419 26.9157 69.5521 26.7882 69.652 26.6329C69.7518 26.472 69.8239 26.2918 69.8683 26.0921C69.9182 25.8924 69.9431 25.6928 69.9431 25.4931C69.9431 25.3045 69.921 25.1187 69.8766 24.9357C69.8322 24.7527 69.7601 24.5891 69.6603 24.4449C69.566 24.2951 69.4412 24.1759 69.2859 24.0872C69.1306 23.9984 68.942 23.954 68.7202 23.954C68.4928 23.954 68.2987 23.9984 68.1378 24.0872C67.977 24.1703 67.8439 24.284 67.7385 24.4282C67.6387 24.5724 67.5638 24.7388 67.5139 24.9274C67.4695 25.116 67.4473 25.3129 67.4473 25.5181C67.4473 25.7122 67.4667 25.9063 67.5056 26.1004C67.5444 26.2945 67.611 26.472 67.7052 26.6329C67.7995 26.7882 67.9243 26.9157 68.0796 27.0156C68.2349 27.1098 68.429 27.157 68.662 27.157Z" fill="white"/>
<path d="M4.34153 36.7981C4.34153 36.8972 4.28979 36.9924 4.19482 37.0209C4.09431 37.0511 3.97406 37.0662 3.83405 37.0662C3.65103 37.0662 3.50405 37.0163 3.39313 36.9165V36.9165C3.26258 36.7859 2.98574 36.6713 2.83085 36.7718C2.74283 36.8289 2.65017 36.8771 2.55288 36.9165C2.29775 37.0163 2.02044 37.0662 1.72094 37.0662C1.52683 37.0662 1.34103 37.044 1.16355 36.9997C0.991617 36.9553 0.841869 36.886 0.714306 36.7917C0.586743 36.6974 0.484138 36.5754 0.406491 36.4256C0.33439 36.2703 0.29834 36.0845 0.29834 35.8682C0.29834 35.6242 0.339936 35.4245 0.42313 35.2693C0.506323 35.114 0.614474 34.9892 0.747584 34.8949C0.886239 34.795 1.04153 34.7202 1.21347 34.6703C1.39094 34.6203 1.5712 34.5787 1.75422 34.5455C1.94834 34.5066 2.13136 34.4789 2.3033 34.4623C2.48078 34.4401 2.63607 34.4124 2.76918 34.3791C2.90229 34.3403 3.00767 34.2876 3.08531 34.221C3.16296 34.1489 3.20179 34.0463 3.20179 33.9132C3.20179 33.7579 3.17128 33.6331 3.11027 33.5388C3.05481 33.4445 2.97994 33.3724 2.88565 33.3225C2.79691 33.2726 2.69431 33.2393 2.57784 33.2227C2.46691 33.2061 2.35599 33.1977 2.24506 33.1977C1.94557 33.1977 1.69599 33.256 1.49632 33.3724C1.37635 33.4391 1.28942 33.5428 1.23553 33.6835C1.16799 33.8599 1.02382 34.013 0.83495 34.013V34.013C0.633023 34.013 0.46603 33.8428 0.514191 33.6467C0.541952 33.5337 0.580926 33.4312 0.631113 33.3392C0.730945 33.1561 0.864054 33.0092 1.03044 32.8982C1.19683 32.7818 1.3854 32.6986 1.59615 32.6487C1.81246 32.5987 2.04263 32.5738 2.28666 32.5738C2.48078 32.5738 2.67212 32.5877 2.86069 32.6154C3.05481 32.6431 3.22952 32.7014 3.38481 32.7901C3.5401 32.8733 3.66489 32.9925 3.75918 33.1478C3.85347 33.3031 3.90061 33.5056 3.90061 33.7551V35.9681C3.90061 36.1345 3.90893 36.2565 3.92557 36.3341C3.94775 36.4118 4.01431 36.4506 4.12523 36.4506V36.4506C4.23404 36.4506 4.34153 36.5214 4.34153 36.6302V36.7981ZM3.19347 35.1363C3.19347 34.9786 2.99777 34.8677 2.84405 34.9032V34.9032C2.69985 34.9309 2.54733 34.9559 2.38649 34.9781C2.2312 34.9947 2.07313 35.0169 1.91229 35.0446C1.75145 35.0668 1.60725 35.1056 1.47968 35.1611C1.35212 35.2166 1.24674 35.297 1.16355 35.4024C1.0859 35.5022 1.04708 35.6408 1.04708 35.8183C1.04708 35.9348 1.06926 36.0346 1.11363 36.1178C1.16355 36.1955 1.22456 36.2593 1.29666 36.3092C1.37431 36.3591 1.46305 36.3951 1.56288 36.4173C1.66271 36.4395 1.76809 36.4506 1.87901 36.4506C2.11195 36.4506 2.31162 36.4201 2.478 36.3591C2.64439 36.2925 2.78027 36.2121 2.88565 36.1178C2.99103 36.018 3.06868 35.9126 3.11859 35.8017C3.16851 35.6852 3.19347 35.5771 3.19347 35.4772V35.1363Z" fill="white"/>
<path d="M7.60628 33.6595C7.60628 33.4596 7.44426 33.2976 7.24439 33.2976H7.19448C7.02218 33.2976 6.8825 33.1579 6.8825 32.9856V32.9856C6.8825 32.8133 7.02218 32.6736 7.19448 32.6736H7.24439C7.44426 32.6736 7.60628 32.5116 7.60628 32.3117V32.033C7.60628 31.6836 7.70612 31.4202 7.90578 31.2427C8.11099 31.0597 8.40771 30.9682 8.79595 30.9682C8.8625 30.9682 8.93738 30.9737 9.02057 30.9848C9.03133 30.9861 9.04193 30.9876 9.05237 30.9891C9.17443 31.0067 9.25351 31.1179 9.25351 31.2412V31.4458C9.25351 31.5452 9.153 31.6164 9.05385 31.6087V31.6087C8.98175 31.5977 8.91519 31.5921 8.85418 31.5921C8.68225 31.5921 8.54914 31.6254 8.45485 31.6919C8.36057 31.7585 8.31343 31.8861 8.31343 32.0746V32.2577C8.31343 32.4874 8.49966 32.6736 8.72939 32.6736H8.83338C9.00568 32.6736 9.14536 32.8133 9.14536 32.9856V32.9856C9.14536 33.1579 9.00568 33.2976 8.83338 33.2976H8.72939C8.49966 33.2976 8.31343 33.4838 8.31343 33.7135V36.6211C8.31343 36.8164 8.15513 36.9747 7.95986 36.9747V36.9747C7.76458 36.9747 7.60628 36.8164 7.60628 36.6211V33.6595Z" fill="white"/>
<path d="M10.2926 34.8283C10.2926 35.089 10.3259 35.3219 10.3924 35.5272C10.4645 35.7268 10.5616 35.896 10.6836 36.0346C10.8056 36.1677 10.947 36.2703 11.1079 36.3424C11.2743 36.4145 11.449 36.4506 11.632 36.4506C11.815 36.4506 11.987 36.4145 12.1478 36.3424C12.3142 36.2703 12.4584 36.1677 12.5804 36.0346C12.7024 35.896 12.7967 35.7268 12.8633 35.5272C12.9354 35.3219 12.9714 35.089 12.9714 34.8283C12.9714 34.5677 12.9354 34.3375 12.8633 34.1378C12.7967 33.9326 12.7024 33.7607 12.5804 33.622C12.4584 33.4834 12.3142 33.378 12.1478 33.3059C11.987 33.2338 11.815 33.1977 11.632 33.1977C11.449 33.1977 11.2743 33.2338 11.1079 33.3059C10.947 33.378 10.8056 33.4834 10.6836 33.622C10.5616 33.7607 10.4645 33.9326 10.3924 34.1378C10.3259 34.3375 10.2926 34.5677 10.2926 34.8283ZM9.54384 34.8283C9.54384 34.5122 9.58821 34.2182 9.67695 33.9465C9.76569 33.6692 9.8988 33.4307 10.0763 33.231C10.2538 33.0258 10.4728 32.865 10.7335 32.7485C10.9942 32.632 11.2937 32.5738 11.632 32.5738C11.9759 32.5738 12.2754 32.632 12.5305 32.7485C12.7912 32.865 13.0102 33.0258 13.1877 33.231C13.3652 33.4307 13.4983 33.6692 13.587 33.9465C13.6758 34.2182 13.7201 34.5122 13.7201 34.8283C13.7201 35.1445 13.6758 35.4384 13.587 35.7102C13.4983 35.9819 13.3652 36.2204 13.1877 36.4256C13.0102 36.6253 12.7912 36.7834 12.5305 36.8998C12.2754 37.0108 11.9759 37.0662 11.632 37.0662C11.2937 37.0662 10.9942 37.0108 10.7335 36.8998C10.4728 36.7834 10.2538 36.6253 10.0763 36.4256C9.8988 36.2204 9.76569 35.9819 9.67695 35.7102C9.58821 35.4384 9.54384 35.1445 9.54384 34.8283Z" fill="white"/>
<path d="M14.5289 33.0064C14.5289 32.8226 14.6779 32.6736 14.8617 32.6736V32.6736C15.0455 32.6736 15.1945 32.8226 15.1945 33.0064V33.5702C15.1945 33.5758 15.1991 33.5804 15.2047 33.5804V33.5804C15.2086 33.5804 15.2122 33.5782 15.214 33.5747C15.3854 33.2282 15.5952 32.9722 15.8434 32.8067C16.0079 32.697 16.2014 32.6259 16.4238 32.5934C16.6271 32.5636 16.7918 32.7373 16.7918 32.9427V32.9427C16.7918 33.1525 16.6206 33.3176 16.4133 33.3494C16.2869 33.3687 16.1719 33.3986 16.068 33.439C15.8684 33.5166 15.7075 33.6303 15.5855 33.7801C15.4635 33.9298 15.3747 34.1129 15.3193 34.3292C15.2638 34.5399 15.2361 34.784 15.2361 35.0613V36.6211C15.2361 36.8164 15.0778 36.9747 14.8825 36.9747V36.9747C14.6872 36.9747 14.5289 36.8164 14.5289 36.6211V33.0064Z" fill="white"/>
<path d="M19.6738 34.4124C19.9395 34.4124 20.1561 34.1809 20.0482 33.9382V33.9382C19.9872 33.7884 19.9013 33.6608 19.7903 33.5555C19.685 33.4445 19.5574 33.3586 19.4076 33.2976C19.2634 33.231 19.1026 33.1977 18.9251 33.1977C18.7421 33.1977 18.5757 33.231 18.426 33.2976C18.2818 33.3586 18.157 33.4445 18.0516 33.5555C17.9462 33.6664 17.863 33.7967 17.802 33.9465V33.9465C17.7007 34.186 17.9143 34.4124 18.1744 34.4124H19.6738ZM20.4271 35.6103C20.6446 35.6103 20.8111 35.811 20.731 36.0132C20.6173 36.3005 20.4479 36.5295 20.2229 36.7002C19.9013 36.9442 19.4964 37.0662 19.0083 37.0662C18.6644 37.0662 18.365 37.0108 18.1098 36.8998C17.8602 36.7889 17.6495 36.6336 17.4776 36.434C17.3056 36.2343 17.1753 35.9958 17.0865 35.7185C17.0034 35.4412 16.9562 35.1389 16.9451 34.8117C16.9451 34.4845 16.995 34.185 17.0949 33.9132C17.1947 33.6414 17.3334 33.4057 17.5108 33.2061C17.6939 33.0064 17.9074 32.8511 18.1514 32.7402C18.401 32.6293 18.6728 32.5738 18.9667 32.5738C19.3494 32.5738 19.6655 32.6542 19.9151 32.815C20.1702 32.9703 20.3727 33.17 20.5224 33.414C20.6777 33.6581 20.7831 33.9243 20.8386 34.2127V34.2127C20.9345 34.6662 20.5478 35.0363 20.0843 35.0363H18.2409C17.9362 35.0363 17.6755 35.2844 17.7604 35.5771V35.5771C17.8103 35.7435 17.8908 35.8932 18.0017 36.0263C18.1126 36.1539 18.254 36.2565 18.426 36.3341C18.5979 36.4118 18.8003 36.4506 19.0333 36.4506C19.3328 36.4506 19.5768 36.3813 19.7654 36.2426C19.8931 36.1514 19.992 36.0289 20.0621 35.8753C20.1297 35.7271 20.2643 35.6103 20.4271 35.6103V35.6103Z" fill="white"/>
<path d="M22.3952 31.5464C22.3952 31.7416 22.2369 31.8999 22.0416 31.8999V31.8999C21.8463 31.8999 21.688 31.7416 21.688 31.5464V31.3883C21.688 31.193 21.8463 31.0347 22.0416 31.0347V31.0347C22.2369 31.0347 22.3952 31.193 22.3952 31.3883V31.5464ZM21.688 33.0272C21.688 32.8319 21.8463 32.6736 22.0416 32.6736V32.6736C22.2369 32.6736 22.3952 32.8319 22.3952 33.0272V36.6211C22.3952 36.8164 22.2369 36.9747 22.0416 36.9747V36.9747C21.8463 36.9747 21.688 36.8164 21.688 36.6211V33.0272Z" fill="white"/>
<path d="M27.2011 36.6087C27.2011 37.313 27.0403 37.8399 26.7186 38.1893C26.3969 38.5387 25.8922 38.7135 25.2045 38.7135C25.0048 38.7135 24.7996 38.6913 24.5888 38.6469C24.3836 38.6025 24.195 38.5304 24.0231 38.4306C23.8567 38.3308 23.7181 38.2004 23.6071 38.0396C23.5592 37.9701 23.5207 37.894 23.4914 37.8111C23.4243 37.6213 23.5925 37.4489 23.7938 37.4489V37.4489C23.9825 37.4489 24.1243 37.6133 24.2394 37.7629C24.2421 37.7664 24.2449 37.7699 24.2477 37.7734C24.3254 37.8621 24.4169 37.9342 24.5223 37.9897C24.6332 38.0451 24.7524 38.084 24.88 38.1061C25.0076 38.1339 25.1296 38.1477 25.2461 38.1477C25.479 38.1477 25.6759 38.1061 25.8367 38.0229C25.9976 37.9453 26.1307 37.8344 26.2361 37.6902C26.3414 37.5515 26.4163 37.3824 26.4607 37.1827C26.5106 36.983 26.5355 36.764 26.5355 36.5255V36.2527C26.5355 36.2472 26.531 36.2426 26.5254 36.2426V36.2426C26.5215 36.2426 26.5178 36.2449 26.5162 36.2485C26.3941 36.5118 26.2092 36.7067 25.9615 36.8333C25.7175 36.9553 25.4568 37.0163 25.1795 37.0163C24.8578 37.0163 24.5777 36.9581 24.3392 36.8416C24.1008 36.7251 23.9011 36.5698 23.7403 36.3757C23.5794 36.1761 23.4574 35.9459 23.3742 35.6852C23.2966 35.419 23.2577 35.1389 23.2577 34.845C23.2577 34.5898 23.291 34.3292 23.3576 34.0629C23.4241 33.7912 23.535 33.5472 23.6903 33.3308C23.8456 33.109 24.0508 32.9287 24.306 32.7901C24.5611 32.6459 24.8745 32.5738 25.2461 32.5738C25.5178 32.5738 25.7674 32.6348 25.9948 32.7568C26.2213 32.8728 26.3983 33.0494 26.5258 33.2865C26.5267 33.2882 26.5284 33.2893 26.5303 33.2893V33.2893C26.5332 33.2893 26.5355 33.2869 26.5355 33.284V32.9814C26.5355 32.8114 26.6734 32.6736 26.8434 32.6736H26.8683C27.0521 32.6736 27.2011 32.8226 27.2011 33.0064V36.6087ZM25.2211 36.4007C25.454 36.4007 25.6509 36.3535 25.8118 36.2593C25.9782 36.1594 26.1113 36.0319 26.2111 35.8766C26.3109 35.7157 26.383 35.5355 26.4274 35.3358C26.4773 35.1361 26.5023 34.9365 26.5023 34.7368C26.5023 34.5482 26.4801 34.3624 26.4357 34.1794C26.3913 33.9964 26.3192 33.8328 26.2194 33.6886C26.1251 33.5388 26.0003 33.4196 25.845 33.3308C25.6897 33.2421 25.5012 33.1977 25.2793 33.1977C25.0519 33.1977 24.8578 33.2421 24.697 33.3308C24.5361 33.414 24.403 33.5277 24.2976 33.6719C24.1978 33.8161 24.1229 33.9825 24.073 34.1711C24.0287 34.3597 24.0065 34.5566 24.0065 34.7618C24.0065 34.9559 24.0259 35.15 24.0647 35.3441C24.1035 35.5382 24.1701 35.7157 24.2644 35.8766C24.3587 36.0319 24.4834 36.1594 24.6387 36.2593C24.794 36.3535 24.9882 36.4007 25.2211 36.4007Z" fill="white"/>
<path d="M28.2678 33.0064C28.2678 32.8226 28.4168 32.6736 28.6006 32.6736V32.6736C28.7843 32.6736 28.9333 32.8226 28.9333 33.0064V33.3453C28.9333 33.3511 28.938 33.3558 28.9438 33.3558V33.3558C28.9476 33.3558 28.9511 33.3537 28.953 33.3504C29.2471 32.8327 29.712 32.5738 30.3476 32.5738C30.6305 32.5738 30.8662 32.6126 31.0548 32.6903C31.2433 32.7679 31.3959 32.8761 31.5123 33.0147C31.6288 33.1534 31.7092 33.3198 31.7536 33.5139C31.8035 33.7024 31.8285 33.9132 31.8285 34.1461V36.6211C31.8285 36.8164 31.6702 36.9747 31.4749 36.9747V36.9747C31.2796 36.9747 31.1213 36.8164 31.1213 36.6211V34.0629C31.1213 33.7967 31.0437 33.586 30.8884 33.4307C30.7331 33.2754 30.5195 33.1977 30.2478 33.1977C30.0315 33.1977 29.8429 33.231 29.6821 33.2976C29.5268 33.3641 29.3964 33.4584 29.2911 33.5804C29.1857 33.7024 29.1053 33.8466 29.0498 34.013C28.9999 34.1739 28.9749 34.3514 28.9749 34.5455V36.6211C28.9749 36.8164 28.8166 36.9747 28.6214 36.9747V36.9747C28.4261 36.9747 28.2678 36.8164 28.2678 36.6211V33.0064Z" fill="white"/>
<path d="M35.2476 31.3883C35.2476 31.193 35.4059 31.0347 35.6011 31.0347V31.0347C35.7964 31.0347 35.9547 31.193 35.9547 31.3883V36.6211C35.9547 36.8164 35.7964 36.9747 35.6011 36.9747V36.9747C35.4059 36.9747 35.2476 36.8164 35.2476 36.6211V31.3883Z" fill="white"/>
<path d="M40.8605 36.7981C40.8605 36.8972 40.8087 36.9924 40.7137 37.0209C40.6132 37.0511 40.493 37.0662 40.353 37.0662C40.17 37.0662 40.023 37.0163 39.9121 36.9165V36.9165C39.7815 36.7859 39.5047 36.6713 39.3498 36.7718C39.2617 36.8289 39.1691 36.8771 39.0718 36.9165C38.8167 37.0163 38.5394 37.0662 38.2399 37.0662C38.0457 37.0662 37.8599 37.044 37.6825 36.9997C37.5105 36.9553 37.3608 36.886 37.2332 36.7917C37.1057 36.6974 37.0031 36.5754 36.9254 36.4256C36.8533 36.2703 36.8173 36.0845 36.8173 35.8682C36.8173 35.6242 36.8589 35.4245 36.942 35.2693C37.0252 35.114 37.1334 34.9892 37.2665 34.8949C37.4052 34.795 37.5605 34.7202 37.7324 34.6703C37.9099 34.6203 38.0901 34.5787 38.2731 34.5455C38.4673 34.5066 38.6503 34.4789 38.8222 34.4623C38.9997 34.4401 39.155 34.4124 39.2881 34.3791C39.4212 34.3403 39.5266 34.2876 39.6042 34.221C39.6819 34.1489 39.7207 34.0463 39.7207 33.9132C39.7207 33.7579 39.6902 33.6331 39.6292 33.5388C39.5737 33.4445 39.4989 33.3724 39.4046 33.3225C39.3158 33.2726 39.2132 33.2393 39.0968 33.2227C38.9858 33.2061 38.8749 33.1977 38.764 33.1977C38.4645 33.1977 38.2149 33.256 38.0152 33.3724C37.8953 33.4391 37.8083 33.5428 37.7545 33.6835C37.6869 33.8599 37.5427 34.013 37.3539 34.013V34.013C37.1519 34.013 36.985 33.8428 37.0331 33.6467C37.0609 33.5337 37.0998 33.4312 37.15 33.3392C37.2499 33.1561 37.383 33.0092 37.5494 32.8982C37.7157 32.7818 37.9043 32.6986 38.1151 32.6487C38.3314 32.5987 38.5615 32.5738 38.8056 32.5738C38.9997 32.5738 39.191 32.5877 39.3796 32.6154C39.5737 32.6431 39.7484 32.7014 39.9037 32.7901C40.059 32.8733 40.1838 32.9925 40.2781 33.1478C40.3724 33.3031 40.4195 33.5056 40.4195 33.7551V35.9681C40.4195 36.1345 40.4278 36.2565 40.4445 36.3341C40.4667 36.4118 40.5332 36.4506 40.6442 36.4506V36.4506C40.753 36.4506 40.8605 36.5214 40.8605 36.6302V36.7981ZM39.7124 35.1363C39.7124 34.9786 39.5167 34.8677 39.363 34.9032V34.9032C39.2188 34.9309 39.0663 34.9559 38.9054 34.9781C38.7501 34.9947 38.592 35.0169 38.4312 35.0446C38.2704 35.0668 38.1262 35.1056 37.9986 35.1611C37.871 35.2166 37.7657 35.297 37.6825 35.4024C37.6048 35.5022 37.566 35.6408 37.566 35.8183C37.566 35.9348 37.5882 36.0346 37.6326 36.1178C37.6825 36.1955 37.7435 36.2593 37.8156 36.3092C37.8932 36.3591 37.982 36.3951 38.0818 36.4173C38.1816 36.4395 38.287 36.4506 38.3979 36.4506C38.6309 36.4506 38.8305 36.4201 38.9969 36.3591C39.1633 36.2925 39.2992 36.2121 39.4046 36.1178C39.51 36.018 39.5876 35.9126 39.6375 35.8017C39.6874 35.6852 39.7124 35.5771 39.7124 35.4772V35.1363Z" fill="white"/>
<path d="M41.5186 33.0064C41.5186 32.8226 41.6676 32.6736 41.8514 32.6736V32.6736C42.0351 32.6736 42.1841 32.8226 42.1841 33.0064V33.3453C42.1841 33.3511 42.1888 33.3558 42.1946 33.3558V33.3558C42.1984 33.3558 42.2019 33.3537 42.2038 33.3504C42.4979 32.8327 42.9628 32.5738 43.5984 32.5738C43.8813 32.5738 44.117 32.6126 44.3056 32.6903C44.4941 32.7679 44.6467 32.8761 44.7631 33.0147C44.8796 33.1534 44.96 33.3198 45.0044 33.5139C45.0543 33.7024 45.0793 33.9132 45.0793 34.1461V36.6211C45.0793 36.8164 44.921 36.9747 44.7257 36.9747V36.9747C44.5304 36.9747 44.3721 36.8164 44.3721 36.6211V34.0629C44.3721 33.7967 44.2945 33.586 44.1392 33.4307C43.9839 33.2754 43.7704 33.1977 43.4986 33.1977C43.2823 33.1977 43.0937 33.231 42.9329 33.2976C42.7776 33.3641 42.6472 33.4584 42.5419 33.5804C42.4365 33.7024 42.3561 33.8466 42.3006 34.013C42.2507 34.1739 42.2257 34.3514 42.2257 34.5455V36.6211C42.2257 36.8164 42.0674 36.9747 41.8722 36.9747V36.9747C41.6769 36.9747 41.5186 36.8164 41.5186 36.6211V33.0064Z" fill="white"/>
<path d="M49.8518 36.6087C49.8518 37.313 49.6909 37.8399 49.3692 38.1893C49.0476 38.5387 48.5429 38.7135 47.8551 38.7135C47.6555 38.7135 47.4502 38.6913 47.2395 38.6469C47.0343 38.6025 46.8457 38.5304 46.6738 38.4306C46.5074 38.3308 46.3687 38.2004 46.2578 38.0396C46.2099 37.9701 46.1713 37.894 46.142 37.8111C46.075 37.6213 46.2432 37.4489 46.4444 37.4489V37.4489C46.6332 37.4489 46.775 37.6133 46.8901 37.7629C46.8928 37.7664 46.8956 37.7699 46.8984 37.7734C46.976 37.8621 47.0676 37.9342 47.1729 37.9897C47.2839 38.0451 47.4031 38.084 47.5307 38.1061C47.6582 38.1339 47.7802 38.1477 47.8967 38.1477C48.1297 38.1477 48.3265 38.1061 48.4874 38.0229C48.6482 37.9453 48.7813 37.8344 48.8867 37.6902C48.9921 37.5515 49.067 37.3824 49.1113 37.1827C49.1613 36.983 49.1862 36.764 49.1862 36.5255V36.2527C49.1862 36.2472 49.1817 36.2426 49.1761 36.2426V36.2426C49.1721 36.2426 49.1685 36.2449 49.1668 36.2485C49.0448 36.5118 48.8599 36.7067 48.6122 36.8333C48.3681 36.9553 48.1075 37.0163 47.8302 37.0163C47.5085 37.0163 47.2284 36.9581 46.9899 36.8416C46.7514 36.7251 46.5518 36.5698 46.3909 36.3757C46.2301 36.1761 46.1081 35.9459 46.0249 35.6852C45.9472 35.419 45.9084 35.1389 45.9084 34.845C45.9084 34.5898 45.9417 34.3292 46.0082 34.0629C46.0748 33.7912 46.1857 33.5472 46.341 33.3308C46.4963 33.109 46.7015 32.9287 46.9566 32.7901C47.2118 32.6459 47.5251 32.5738 47.8967 32.5738C48.1685 32.5738 48.4181 32.6348 48.6455 32.7568C48.872 32.8728 49.049 33.0494 49.1764 33.2865C49.1773 33.2882 49.1791 33.2893 49.181 33.2893V33.2893C49.1839 33.2893 49.1862 33.2869 49.1862 33.284V32.9814C49.1862 32.8114 49.324 32.6736 49.494 32.6736H49.519C49.7028 32.6736 49.8518 32.8226 49.8518 33.0064V36.6087ZM47.8718 36.4007C48.1047 36.4007 48.3016 36.3535 48.4624 36.2593C48.6288 36.1594 48.7619 36.0319 48.8618 35.8766C48.9616 35.7157 49.0337 35.5355 49.0781 35.3358C49.128 35.1361 49.1529 34.9365 49.1529 34.7368C49.1529 34.5482 49.1308 34.3624 49.0864 34.1794C49.042 33.9964 48.9699 33.8328 48.8701 33.6886C48.7758 33.5388 48.651 33.4196 48.4957 33.3308C48.3404 33.2421 48.1518 33.1977 47.93 33.1977C47.7026 33.1977 47.5085 33.2421 47.3476 33.3308C47.1868 33.414 47.0537 33.5277 46.9483 33.6719C46.8485 33.8161 46.7736 33.9825 46.7237 34.1711C46.6793 34.3597 46.6571 34.5566 46.6571 34.7618C46.6571 34.9559 46.6766 35.15 46.7154 35.3441C46.7542 35.5382 46.8208 35.7157 46.915 35.8766C47.0093 36.0319 47.1341 36.1594 47.2894 36.2593C47.4447 36.3535 47.6388 36.4007 47.8718 36.4007Z" fill="white"/>
<path d="M54.4791 36.6419C54.4791 36.8257 54.3301 36.9747 54.1464 36.9747V36.9747C53.9626 36.9747 53.8136 36.8257 53.8136 36.6419V36.303C53.8136 36.2972 53.8089 36.2925 53.8031 36.2925V36.2925C53.7993 36.2925 53.7958 36.2946 53.7939 36.2979C53.6446 36.5614 53.4543 36.7565 53.2229 36.8832C52.99 37.0052 52.7154 37.0662 52.3993 37.0662C52.1164 37.0662 51.8807 37.0302 51.6922 36.9581C51.5036 36.8804 51.3511 36.7723 51.2346 36.6336C51.1181 36.495 51.0349 36.3314 50.985 36.1428C50.9406 35.9487 50.9185 35.7351 50.9185 35.5022V33.0272C50.9185 32.8319 51.0768 32.6736 51.272 32.6736V32.6736C51.4673 32.6736 51.6256 32.8319 51.6256 33.0272V35.5854C51.6256 35.8516 51.7032 36.0624 51.8585 36.2177C52.0138 36.3729 52.2274 36.4506 52.4991 36.4506C52.7154 36.4506 52.9012 36.4173 53.0565 36.3508C53.2174 36.2842 53.3505 36.1899 53.4558 36.0679C53.5612 35.9459 53.6389 35.8045 53.6888 35.6436C53.7443 35.4772 53.772 35.297 53.772 35.1029V33.0272C53.772 32.8319 53.9303 32.6736 54.1256 32.6736V32.6736C54.3208 32.6736 54.4791 32.8319 54.4791 33.0272V36.6419Z" fill="white"/>
<path d="M59.3515 36.7981C59.3515 36.8972 59.2997 36.9924 59.2047 37.0209C59.1042 37.0511 58.984 37.0662 58.844 37.0662C58.661 37.0662 58.514 37.0163 58.4031 36.9165V36.9165C58.2725 36.7859 57.9957 36.6713 57.8408 36.7718C57.7528 36.8289 57.6601 36.8771 57.5628 36.9165C57.3077 37.0163 57.0304 37.0662 56.7309 37.0662C56.5368 37.0662 56.351 37.044 56.1735 36.9997C56.0015 36.9553 55.8518 36.886 55.7242 36.7917C55.5967 36.6974 55.4941 36.5754 55.4164 36.4256C55.3443 36.2703 55.3083 36.0845 55.3083 35.8682C55.3083 35.6242 55.3499 35.4245 55.4331 35.2693C55.5162 35.114 55.6244 34.9892 55.7575 34.8949C55.8962 34.795 56.0515 34.7202 56.2234 34.6703C56.4009 34.6203 56.5811 34.5787 56.7641 34.5455C56.9583 34.5066 57.1413 34.4789 57.3132 34.4623C57.4907 34.4401 57.646 34.4124 57.7791 34.3791C57.9122 34.3403 58.0176 34.2876 58.0952 34.221C58.1729 34.1489 58.2117 34.0463 58.2117 33.9132C58.2117 33.7579 58.1812 33.6331 58.1202 33.5388C58.0647 33.4445 57.9899 33.3724 57.8956 33.3225C57.8068 33.2726 57.7042 33.2393 57.5878 33.2227C57.4768 33.2061 57.3659 33.1977 57.255 33.1977C56.9555 33.1977 56.7059 33.256 56.5062 33.3724C56.3863 33.4391 56.2993 33.5428 56.2455 33.6835C56.1779 33.8599 56.0337 34.013 55.8449 34.013V34.013C55.6429 34.013 55.476 33.8428 55.5241 33.6467C55.5519 33.5337 55.5909 33.4312 55.641 33.3392C55.7409 33.1561 55.874 33.0092 56.0404 32.8982C56.2068 32.7818 56.3953 32.6986 56.6061 32.6487C56.8224 32.5987 57.0525 32.5738 57.2966 32.5738C57.4907 32.5738 57.682 32.5877 57.8706 32.6154C58.0647 32.6431 58.2394 32.7014 58.3947 32.7901C58.55 32.8733 58.6748 32.9925 58.7691 33.1478C58.8634 33.3031 58.9105 33.5056 58.9105 33.7551V35.9681C58.9105 36.1345 58.9189 36.2565 58.9355 36.3341C58.9577 36.4118 59.0242 36.4506 59.1352 36.4506V36.4506C59.244 36.4506 59.3515 36.5214 59.3515 36.6302V36.7981ZM58.2034 35.1363C58.2034 34.9786 58.0077 34.8677 57.854 34.9032V34.9032C57.7098 34.9309 57.5573 34.9559 57.3964 34.9781C57.2411 34.9947 57.0831 35.0169 56.9222 35.0446C56.7614 35.0668 56.6172 35.1056 56.4896 35.1611C56.362 35.2166 56.2567 35.297 56.1735 35.4024C56.0958 35.5022 56.057 35.6408 56.057 35.8183C56.057 35.9348 56.0792 36.0346 56.1236 36.1178C56.1735 36.1955 56.2345 36.2593 56.3066 36.3092C56.3842 36.3591 56.473 36.3951 56.5728 36.4173C56.6726 36.4395 56.778 36.4506 56.8889 36.4506C57.1219 36.4506 57.3215 36.4201 57.4879 36.3591C57.6543 36.2925 57.7902 36.2121 57.8956 36.1178C58.001 36.018 58.0786 35.9126 58.1285 35.8017C58.1784 35.6852 58.2034 35.5771 58.2034 35.4772V35.1363Z" fill="white"/>
<path d="M63.72 36.6087C63.72 37.313 63.5592 37.8399 63.2375 38.1893C62.9158 38.5387 62.4111 38.7135 61.7234 38.7135C61.5237 38.7135 61.3185 38.6913 61.1077 38.6469C60.9025 38.6025 60.714 38.5304 60.542 38.4306C60.3756 38.3308 60.237 38.2004 60.1261 38.0396C60.0782 37.9701 60.0396 37.894 60.0103 37.8111C59.9433 37.6213 60.1115 37.4489 60.3127 37.4489V37.4489C60.5014 37.4489 60.6432 37.6133 60.7583 37.7629C60.7611 37.7664 60.7638 37.7699 60.7667 37.7734C60.8443 37.8621 60.9358 37.9342 61.0412 37.9897C61.1521 38.0451 61.2714 38.084 61.3989 38.1061C61.5265 38.1339 61.6485 38.1477 61.765 38.1477C61.9979 38.1477 62.1948 38.1061 62.3556 38.0229C62.5165 37.9453 62.6496 37.8344 62.755 37.6902C62.8604 37.5515 62.9352 37.3824 62.9796 37.1827C63.0295 36.983 63.0545 36.764 63.0545 36.5255V36.2528C63.0545 36.2472 63.0499 36.2426 63.0443 36.2426V36.2426C63.0404 36.2426 63.0368 36.2449 63.0351 36.2485C62.913 36.5118 62.7282 36.7067 62.4804 36.8333C62.2364 36.9553 61.9757 37.0163 61.6984 37.0163C61.3767 37.0163 61.0967 36.9581 60.8582 36.8416C60.6197 36.7251 60.42 36.5698 60.2592 36.3757C60.0983 36.1761 59.9763 35.9459 59.8931 35.6852C59.8155 35.419 59.7767 35.1389 59.7767 34.845C59.7767 34.5898 59.8099 34.3292 59.8765 34.0629C59.943 33.7912 60.054 33.5472 60.2093 33.3308C60.3646 33.109 60.5698 32.9287 60.8249 32.7901C61.08 32.6459 61.3934 32.5738 61.765 32.5738C62.0367 32.5738 62.2863 32.6348 62.5137 32.7568C62.7402 32.8728 62.9172 33.0494 63.0447 33.2865C63.0456 33.2882 63.0474 33.2893 63.0493 33.2893V33.2893C63.0521 33.2893 63.0545 33.2869 63.0545 33.284V32.9814C63.0545 32.8114 63.1923 32.6736 63.3623 32.6736H63.3872C63.571 32.6736 63.72 32.8226 63.72 33.0064V36.6087ZM61.74 36.4007C61.973 36.4007 62.1698 36.3535 62.3307 36.2593C62.4971 36.1594 62.6302 36.0319 62.73 35.8766C62.8298 35.7157 62.9019 35.5355 62.9463 35.3358C62.9962 35.1361 63.0212 34.9365 63.0212 34.7368C63.0212 34.5482 62.999 34.3624 62.9546 34.1794C62.9103 33.9964 62.8382 33.8328 62.7383 33.6886C62.6441 33.5388 62.5193 33.4196 62.364 33.3308C62.2087 33.2421 62.0201 33.1977 61.7983 33.1977C61.5709 33.1977 61.3767 33.2421 61.2159 33.3308C61.0551 33.414 60.9219 33.5277 60.8166 33.6719C60.7167 33.8161 60.6419 33.9825 60.592 34.1711C60.5476 34.3597 60.5254 34.5566 60.5254 34.7618C60.5254 34.9559 60.5448 35.15 60.5836 35.3441C60.6225 35.5382 60.689 35.7157 60.7833 35.8766C60.8776 36.0319 61.0024 36.1594 61.1577 36.2593C61.313 36.3535 61.5071 36.4007 61.74 36.4007Z" fill="white"/>
<path d="M67.2825 34.4124C67.5481 34.4124 67.7648 34.1809 67.6569 33.9382V33.9382C67.5959 33.7884 67.5099 33.6608 67.399 33.5555C67.2936 33.4445 67.166 33.3586 67.0163 33.2976C66.8721 33.231 66.7113 33.1977 66.5338 33.1977C66.3507 33.1977 66.1844 33.231 66.0346 33.2976C65.8904 33.3586 65.7656 33.4445 65.6602 33.5555C65.5549 33.6664 65.4717 33.7967 65.4107 33.9465V33.9465C65.3093 34.186 65.523 34.4124 65.783 34.4124H67.2825ZM68.0358 35.6103C68.2533 35.6103 68.4197 35.811 68.3397 36.0132C68.2259 36.3005 68.0566 36.5295 67.8316 36.7002C67.5099 36.9442 67.105 37.0662 66.617 37.0662C66.2731 37.0662 65.9736 37.0108 65.7185 36.8998C65.4689 36.7889 65.2581 36.6336 65.0862 36.434C64.9143 36.2343 64.7839 35.9958 64.6952 35.7185C64.612 35.4412 64.5649 35.1389 64.5538 34.8117C64.5538 34.4845 64.6037 34.185 64.7035 33.9132C64.8034 33.6414 64.942 33.4057 65.1195 33.2061C65.3025 33.0064 65.516 32.8511 65.7601 32.7402C66.0097 32.6293 66.2814 32.5738 66.5754 32.5738C66.9581 32.5738 67.2742 32.6542 67.5238 32.815C67.7789 32.9703 67.9813 33.17 68.1311 33.414C68.2864 33.6581 68.3918 33.9243 68.4472 34.2127V34.2127C68.5432 34.6662 68.1564 35.0363 67.6929 35.0363H65.8496C65.5449 35.0363 65.2841 35.2844 65.3691 35.5771V35.5771C65.419 35.7435 65.4994 35.8932 65.6103 36.0263C65.7213 36.1539 65.8627 36.2565 66.0346 36.3341C66.2065 36.4118 66.409 36.4506 66.6419 36.4506C66.9414 36.4506 67.1855 36.3813 67.374 36.2426C67.5017 36.1514 67.6007 36.0289 67.6708 35.8753C67.7383 35.7271 67.873 35.6103 68.0358 35.6103V35.6103Z" fill="white"/>
<path d="M71.5456 33.0064C71.5456 32.8226 71.6946 32.6736 71.8784 32.6736V32.6736C72.0621 32.6736 72.2111 32.8226 72.2111 33.0064V33.5702C72.2111 33.5758 72.2157 33.5804 72.2214 33.5804V33.5804C72.2253 33.5804 72.2289 33.5782 72.2306 33.5747C72.402 33.2282 72.6118 32.9722 72.86 32.8067C73.0246 32.697 73.2181 32.6259 73.4405 32.5934C73.6438 32.5636 73.8084 32.7373 73.8084 32.9427V32.9427C73.8084 33.1525 73.6373 33.3176 73.4299 33.3494C73.3036 33.3687 73.1885 33.3986 73.0847 33.439C72.885 33.5166 72.7242 33.6303 72.6021 33.7801C72.4801 33.9298 72.3914 34.1129 72.3359 34.3292C72.2805 34.5399 72.2527 34.784 72.2527 35.0613V36.6211C72.2527 36.8164 72.0944 36.9747 71.8992 36.9747V36.9747C71.7039 36.9747 71.5456 36.8164 71.5456 36.6211V33.0064Z" fill="white"/>
<path d="M75.0897 31.5464C75.0897 31.7416 74.9314 31.8999 74.7361 31.8999V31.8999C74.5408 31.8999 74.3825 31.7416 74.3825 31.5464V31.3883C74.3825 31.193 74.5408 31.0347 74.7361 31.0347V31.0347C74.9314 31.0347 75.0897 31.193 75.0897 31.3883V31.5464ZM74.3825 33.0272C74.3825 32.8319 74.5408 32.6736 74.7361 32.6736V32.6736C74.9314 32.6736 75.0897 32.8319 75.0897 33.0272V36.6211C75.0897 36.8164 74.9314 36.9747 74.7361 36.9747V36.9747C74.5408 36.9747 74.3825 36.8164 74.3825 36.6211V33.0272Z" fill="white"/>
<path d="M79.8956 36.6087C79.8956 37.313 79.7347 37.8399 79.4131 38.1893C79.0914 38.5387 78.5867 38.7135 77.8989 38.7135C77.6993 38.7135 77.4941 38.6913 77.2833 38.6469C77.0781 38.6025 76.8895 38.5304 76.7176 38.4306C76.5512 38.3308 76.4126 38.2004 76.3016 38.0396C76.2537 37.9701 76.2152 37.894 76.1859 37.8111C76.1188 37.6213 76.287 37.4489 76.4883 37.4489V37.4489C76.677 37.4489 76.8188 37.6133 76.9339 37.7629C76.9366 37.7664 76.9394 37.7699 76.9422 37.7734C77.0199 37.8621 77.1114 37.9342 77.2168 37.9897C77.3277 38.0451 77.4469 38.084 77.5745 38.1061C77.7021 38.1339 77.8241 38.1477 77.9405 38.1477C78.1735 38.1477 78.3704 38.1061 78.5312 38.0229C78.6921 37.9453 78.8252 37.8344 78.9305 37.6902C79.0359 37.5515 79.1108 37.3824 79.1552 37.1827C79.2051 36.983 79.23 36.764 79.23 36.5255V36.2528C79.23 36.2472 79.2255 36.2426 79.2199 36.2426V36.2426C79.2159 36.2426 79.2123 36.2449 79.2107 36.2485C79.0886 36.5118 78.9037 36.7067 78.656 36.8333C78.412 36.9553 78.1513 37.0163 77.874 37.0163C77.5523 37.0163 77.2722 36.9581 77.0337 36.8416C76.7953 36.7251 76.5956 36.5698 76.4347 36.3757C76.2739 36.1761 76.1519 35.9459 76.0687 35.6852C75.991 35.419 75.9522 35.1389 75.9522 34.845C75.9522 34.5898 75.9855 34.3292 76.0521 34.0629C76.1186 33.7912 76.2295 33.5472 76.3848 33.3308C76.5401 33.109 76.7453 32.9287 77.0005 32.7901C77.2556 32.6459 77.5689 32.5738 77.9405 32.5738C78.2123 32.5738 78.4619 32.6348 78.6893 32.7568C78.9158 32.8728 79.0928 33.0494 79.2202 33.2865C79.2212 33.2882 79.2229 33.2893 79.2248 33.2893V33.2893C79.2277 33.2893 79.23 33.2869 79.23 33.284V32.9814C79.23 32.8114 79.3679 32.6736 79.5379 32.6736H79.5628C79.7466 32.6736 79.8956 32.8226 79.8956 33.0064V36.6087ZM77.9156 36.4007C78.1485 36.4007 78.3454 36.3535 78.5063 36.2593C78.6726 36.1594 78.8058 36.0319 78.9056 35.8766C79.0054 35.7157 79.0775 35.5355 79.1219 35.3358C79.1718 35.1361 79.1968 34.9365 79.1968 34.7368C79.1968 34.5482 79.1746 34.3624 79.1302 34.1794C79.0858 33.9964 79.0137 33.8328 78.9139 33.6886C78.8196 33.5388 78.6948 33.4196 78.5395 33.3308C78.3842 33.2421 78.1957 33.1977 77.9738 33.1977C77.7464 33.1977 77.5523 33.2421 77.3915 33.3308C77.2306 33.414 77.0975 33.5277 76.9921 33.6719C76.8923 33.8161 76.8174 33.9825 76.7675 34.1711C76.7231 34.3597 76.701 34.5566 76.701 34.7618C76.701 34.9559 76.7204 35.15 76.7592 35.3441C76.798 35.5382 76.8646 35.7157 76.9589 35.8766C77.0532 36.0319 77.1779 36.1594 77.3332 36.2593C77.4885 36.3535 77.6826 36.4007 77.9156 36.4007Z" fill="white"/>
<path d="M80.9623 31.3883C80.9623 31.193 81.1206 31.0347 81.3159 31.0347V31.0347C81.5111 31.0347 81.6694 31.193 81.6694 31.3883V33.2959C81.6694 33.3014 81.6739 33.3059 81.6794 33.3059V33.3059C81.6834 33.3059 81.6871 33.3035 81.6886 33.2997C81.7439 33.1694 81.8207 33.0605 81.919 32.9731C82.0188 32.8788 82.1298 32.804 82.2518 32.7485C82.3793 32.6875 82.5097 32.6431 82.6428 32.6154C82.7814 32.5877 82.9145 32.5738 83.0421 32.5738C83.325 32.5738 83.5607 32.6126 83.7493 32.6903C83.9378 32.7679 84.0903 32.8761 84.2068 33.0147C84.3233 33.1534 84.4037 33.3198 84.4481 33.5139C84.498 33.7024 84.523 33.9132 84.523 34.1461V36.6211C84.523 36.8164 84.3647 36.9747 84.1694 36.9747V36.9747C83.9741 36.9747 83.8158 36.8164 83.8158 36.6211V34.0629C83.8158 33.7967 83.7382 33.586 83.5829 33.4307C83.4276 33.2754 83.214 33.1977 82.9423 33.1977C82.726 33.1977 82.5374 33.231 82.3766 33.2976C82.2213 33.3641 82.0909 33.4584 81.9856 33.5804C81.8802 33.7024 81.7998 33.8466 81.7443 34.013C81.6944 34.1739 81.6694 34.3514 81.6694 34.5455V36.6211C81.6694 36.8164 81.5111 36.9747 81.3159 36.9747V36.9747C81.1206 36.9747 80.9623 36.8164 80.9623 36.6211V31.3883Z" fill="white"/>
<path d="M86.5667 32.2452C86.5667 32.4818 86.7585 32.6736 86.9952 32.6736H87.1116C87.2839 32.6736 87.4236 32.8133 87.4236 32.9856V32.9856C87.4236 33.1579 87.2839 33.2976 87.1116 33.2976H86.9952C86.7585 33.2976 86.5667 33.4894 86.5667 33.726V35.9681C86.5667 36.0513 86.5723 36.1178 86.5833 36.1677C86.6 36.2177 86.6277 36.2565 86.6665 36.2842C86.7054 36.3119 86.7581 36.3314 86.8246 36.3424C86.8967 36.348 86.9882 36.3508 87.0991 36.3508H87.1116C87.2839 36.3508 87.4236 36.4904 87.4236 36.6627V36.6627C87.4236 36.835 87.2839 36.9747 87.1116 36.9747H86.8828C86.6998 36.9747 86.5418 36.9636 86.4086 36.9414C86.2811 36.9137 86.1757 36.8666 86.0925 36.8C86.0149 36.7335 85.9566 36.6392 85.9178 36.5171C85.879 36.3951 85.8596 36.2343 85.8596 36.0346V33.6636C85.8596 33.4615 85.6957 33.2976 85.4935 33.2976H85.4394C85.2671 33.2976 85.1275 33.1579 85.1275 32.9856V32.9856C85.1275 32.8133 85.2671 32.6736 85.4394 32.6736H85.4935C85.6957 32.6736 85.8596 32.5097 85.8596 32.3076V31.7377C85.8596 31.5424 86.0179 31.3841 86.2131 31.3841V31.3841C86.4084 31.3841 86.5667 31.5424 86.5667 31.7377V32.2452Z" fill="white"/>
<path d="M90.5246 33.0064C90.5246 32.8226 90.6736 32.6736 90.8574 32.6736V32.6736C91.0412 32.6736 91.1902 32.8226 91.1902 33.0064V33.3453C91.1902 33.3511 91.1949 33.3558 91.2007 33.3558V33.3558C91.2045 33.3558 91.208 33.3537 91.2099 33.3504C91.504 32.8327 91.9688 32.5738 92.6045 32.5738C92.8873 32.5738 93.123 32.6126 93.3116 32.6903C93.5002 32.7679 93.6527 32.8761 93.7692 33.0147C93.8856 33.1534 93.9661 33.3198 94.0104 33.5139C94.0603 33.7024 94.0853 33.9132 94.0853 34.1461V36.6211C94.0853 36.8164 93.927 36.9747 93.7317 36.9747V36.9747C93.5365 36.9747 93.3782 36.8164 93.3782 36.6211V34.0629C93.3782 33.7967 93.3005 33.586 93.1452 33.4307C92.9899 33.2754 92.7764 33.1977 92.5046 33.1977C92.2883 33.1977 92.0998 33.231 91.9389 33.2976C91.7836 33.3641 91.6533 33.4584 91.5479 33.5804C91.4425 33.7024 91.3621 33.8466 91.3066 34.013C91.2567 34.1739 91.2318 34.3514 91.2318 34.5455V36.6211C91.2318 36.8164 91.0735 36.9747 90.8782 36.9747V36.9747C90.6829 36.9747 90.5246 36.8164 90.5246 36.6211V33.0064Z" fill="white"/>
<path d="M95.6632 34.8283C95.6632 35.089 95.6965 35.3219 95.763 35.5272C95.8351 35.7268 95.9322 35.896 96.0542 36.0346C96.1762 36.1677 96.3176 36.2703 96.4785 36.3424C96.6449 36.4145 96.8196 36.4506 97.0026 36.4506C97.1856 36.4506 97.3575 36.4145 97.5184 36.3424C97.6848 36.2703 97.829 36.1677 97.951 36.0346C98.073 35.896 98.1673 35.7268 98.2339 35.5272C98.306 35.3219 98.342 35.089 98.342 34.8283C98.342 34.5677 98.306 34.3375 98.2339 34.1378C98.1673 33.9326 98.073 33.7607 97.951 33.622C97.829 33.4834 97.6848 33.378 97.5184 33.3059C97.3575 33.2338 97.1856 33.1977 97.0026 33.1977C96.8196 33.1977 96.6449 33.2338 96.4785 33.3059C96.3176 33.378 96.1762 33.4834 96.0542 33.622C95.9322 33.7607 95.8351 33.9326 95.763 34.1378C95.6965 34.3375 95.6632 34.5677 95.6632 34.8283ZM94.9144 34.8283C94.9144 34.5122 94.9588 34.2182 95.0476 33.9465C95.1363 33.6692 95.2694 33.4307 95.4469 33.231C95.6244 33.0258 95.8434 32.865 96.1041 32.7485C96.3648 32.632 96.6643 32.5738 97.0026 32.5738C97.3465 32.5738 97.646 32.632 97.9011 32.7485C98.1618 32.865 98.3808 33.0258 98.5583 33.231C98.7358 33.4307 98.8689 33.6692 98.9576 33.9465C99.0464 34.2182 99.0907 34.5122 99.0907 34.8283C99.0907 35.1445 99.0464 35.4384 98.9576 35.7102C98.8689 35.9819 98.7358 36.2204 98.5583 36.4256C98.3808 36.6253 98.1618 36.7834 97.9011 36.8998C97.646 37.0108 97.3465 37.0662 97.0026 37.0662C96.6643 37.0662 96.3648 37.0108 96.1041 36.8998C95.8434 36.7834 95.6244 36.6253 95.4469 36.4256C95.2694 36.2204 95.1363 35.9819 95.0476 35.7102C94.9588 35.4384 94.9144 35.1445 94.9144 34.8283Z" fill="white"/>
<path d="M104.294 36.629C104.229 36.8349 104.037 36.9747 103.821 36.9747V36.9747C103.594 36.9747 103.396 36.8208 103.34 36.6009L102.564 33.5635C102.563 33.5588 102.558 33.5555 102.553 33.5555V33.5555C102.549 33.5555 102.544 33.5588 102.543 33.5635L101.777 36.5916C101.72 36.8169 101.517 36.9747 101.285 36.9747V36.9747C101.064 36.9747 100.869 36.8323 100.801 36.6223L99.6872 33.1525C99.6112 32.9158 99.7878 32.6736 100.036 32.6736V32.6736C100.201 32.6736 100.346 32.7837 100.39 32.9426L101.287 36.1848C101.288 36.1895 101.292 36.1927 101.297 36.1927V36.1927C101.302 36.1927 101.306 36.1893 101.308 36.1845L102.078 33.051C102.132 32.8294 102.331 32.6736 102.559 32.6736V32.6736C102.786 32.6736 102.984 32.8272 103.04 33.0467L103.841 36.1846C103.842 36.1893 103.846 36.1927 103.851 36.1927V36.1927C103.856 36.1927 103.86 36.1894 103.862 36.1847L104.755 32.9262C104.796 32.7771 104.932 32.6736 105.087 32.6736V32.6736C105.319 32.6736 105.484 32.8999 105.414 33.1215L104.294 36.629Z" fill="white"/>
<path d="M106.312 36.513C106.312 36.258 106.519 36.0513 106.774 36.0513V36.0513C107.029 36.0513 107.236 36.258 107.236 36.513V36.513C107.236 36.768 107.029 36.9747 106.774 36.9747V36.9747C106.519 36.9747 106.312 36.768 106.312 36.513V36.513ZM107.169 32.865L106.976 35.2657C106.968 35.3711 106.88 35.4523 106.774 35.4523V35.4523C106.668 35.4523 106.58 35.3711 106.572 35.2657L106.379 32.865V31.4299C106.379 31.2116 106.556 31.0347 106.774 31.0347V31.0347C106.992 31.0347 107.169 31.2116 107.169 31.4299V32.865Z" fill="white"/>
</svg>
