<svg width="36" height="36" viewBox="0 0 36 36" fill="none" xmlns="http://www.w3.org/2000/svg">
<path id="Union" fill-rule="evenodd" clip-rule="evenodd" d="M36 9C36 13.9706 31.9706 18 27 18C31.9706 18 36 22.0294 36 27C36 31.9706 31.9706 36 27 36C22.0294 36 18 31.9706 18 27C18 31.9706 13.9706 36 9 36C4.02944 36 0 31.9706 0 27C0 22.0294 4.02944 18 9 18C4.02944 18 0 13.9706 0 9C0 4.02944 4.02944 0 9 0C13.9706 0 18 4.02944 18 9C18 4.02944 22.0294 0 27 0C31.9706 0 36 4.02944 36 9Z" fill="#52E731"/>
</svg>
