<svg width="36" height="36" viewBox="0 0 36 36" fill="none" xmlns="http://www.w3.org/2000/svg">
<g id="Mask group">
<mask id="mask0_6_236" style="mask-type:alpha" maskUnits="userSpaceOnUse" x="0" y="0" width="36" height="36">
<path id="Rectangle 71" d="M0 18C0 8.05887 8.05887 0 18 0V0C27.9411 0 36 8.05887 36 18V18C36 27.9411 27.9411 36 18 36V36C8.05887 36 0 27.9411 0 18V18Z" fill="#D9D9D9"/>
</mask>
<g mask="url(#mask0_6_236)">
<g id="Group 427321666">
<path id="Ellipse 3" d="M54 -7.7486e-07C54 9.94112 45.9411 18 36 18C26.0589 18 18 9.94112 18 -7.7486e-07C18 -9.94113 26.0589 -18 36 -18C45.9411 -18 54 -9.94113 54 -7.7486e-07Z" fill="#F9F9F9"/>
<path id="Ellipse 4" d="M54 36C54 45.9411 45.9411 54 36 54C26.0589 54 18 45.9411 18 36C18 26.0589 26.0589 18 36 18C45.9411 18 54 26.0589 54 36Z" fill="#F9F9F9"/>
<path id="Ellipse 5" d="M18 36C18 45.9411 9.94112 54 -7.7486e-07 54C-9.94113 54 -18 45.9411 -18 36C-18 26.0589 -9.94113 18 -7.7486e-07 18C9.94112 18 18 26.0589 18 36Z" fill="#F9F9F9"/>
<path id="Ellipse 6" d="M18 -7.7486e-07C18 9.94112 9.94112 18 -7.7486e-07 18C-9.94113 18 -18 9.94112 -18 -7.7486e-07C-18 -9.94113 -9.94113 -18 -7.7486e-07 -18C9.94112 -18 18 -9.94113 18 -7.7486e-07Z" fill="#F9F9F9"/>
</g>
</g>
</g>
</svg>
