<svg width="40" height="40" viewBox="0 0 40 40" fill="none" xmlns="http://www.w3.org/2000/svg">
<g id="G1">
<path id="Vector" fill-rule="evenodd" clip-rule="evenodd" d="M19.9995 0H7.6C3.40264 0 0 3.40264 0 7.6V32.4C0 36.5974 3.40264 40 7.6 40H19.9995C19.9998 39.9668 20 39.9334 20 39.9C20 39.9334 20.0002 39.9668 20.0004 40H32.4C36.5974 40 40 36.5974 40 32.4V7.6C40 3.40264 36.5974 0 32.4 0H20.0004C20.0542 5.53202 24.5552 10 30.1 10H30C24.4772 10 20 14.4772 20 20C20 14.4772 15.5228 10 10 10H9.9C15.4447 10 19.9459 5.53202 19.9995 0ZM20 20C20 25.0572 16.246 29.2376 11.3726 29.9066C16.2527 30.6194 20 34.8222 20 39.9C20 34.8222 23.7474 30.6194 28.6274 29.9066C23.754 29.2376 20 25.0572 20 20Z" fill="#B12FD8"/>
</g>
</svg>
