<svg width="40" height="40" viewBox="0 0 40 40" fill="none" xmlns="http://www.w3.org/2000/svg">
<path d="M22.1135 19.9974L31.5566 10.5693C31.8389 10.287 31.9974 9.90421 31.9974 9.50505C31.9974 9.10588 31.8389 8.72307 31.5566 8.44082C31.2744 8.15857 30.8916 8 30.4924 8C30.0932 8 29.7104 8.15857 29.4282 8.44082L20 17.884L10.5718 8.44082C10.2896 8.15857 9.90677 8 9.5076 8C9.10844 8 8.72563 8.15857 8.44338 8.44082C8.16113 8.72307 8.00256 9.10588 8.00256 9.50505C8.00256 9.90421 8.16113 10.287 8.44338 10.5693L17.8865 19.9974L8.44338 29.4256C8.30289 29.5649 8.19138 29.7307 8.11528 29.9134C8.03918 30.096 8 30.292 8 30.4898C8 30.6877 8.03918 30.8836 8.11528 31.0663C8.19138 31.2489 8.30289 31.4147 8.44338 31.5541C8.58272 31.6946 8.7485 31.8061 8.93116 31.8822C9.11381 31.9583 9.30973 31.9974 9.5076 31.9974C9.70548 31.9974 9.9014 31.9583 10.0841 31.8822C10.2667 31.8061 10.4325 31.6946 10.5718 31.5541L20 22.1109L29.4282 31.5541C29.5675 31.6946 29.7333 31.8061 29.9159 31.8822C30.0986 31.9583 30.2945 31.9974 30.4924 31.9974C30.6903 31.9974 30.8862 31.9583 31.0688 31.8822C31.2515 31.8061 31.4173 31.6946 31.5566 31.5541C31.6971 31.4147 31.8086 31.2489 31.8847 31.0663C31.9608 30.8836 32 30.6877 32 30.4898C32 30.292 31.9608 30.096 31.8847 29.9134C31.8086 29.7307 31.6971 29.5649 31.5566 29.4256L22.1135 19.9974Z" fill="white" fill-opacity="0.8"/>
</svg>
