<svg width="40" height="40" viewBox="0 0 40 40" fill="none" xmlns="http://www.w3.org/2000/svg">
<path d="M30.9068 17.4252H15.0943L21.9693 10.571C22.3616 10.1787 22.582 9.64665 22.582 9.09186C22.582 8.53706 22.3616 8.00499 21.9693 7.61269C21.577 7.22039 21.0449 7 20.4901 7C19.9353 7 19.4032 7.22039 19.0109 7.61269L8.59427 18.0294C8.4046 18.2275 8.25592 18.4611 8.15677 18.7169C7.9484 19.2241 7.9484 19.793 8.15677 20.3002C8.25592 20.5559 8.4046 20.7896 8.59427 20.9877L19.0109 31.4044C19.2046 31.5996 19.435 31.7546 19.6889 31.8604C19.9428 31.9661 20.2151 32.0206 20.4901 32.0206C20.7651 32.0206 21.0374 31.9661 21.2913 31.8604C21.5452 31.7546 21.7756 31.5996 21.9693 31.4044C22.1645 31.2107 22.3195 30.9803 22.4253 30.7264C22.5311 30.4725 22.5855 30.2002 22.5855 29.9252C22.5855 29.6502 22.5311 29.3779 22.4253 29.124C22.3195 28.8701 22.1645 28.6397 21.9693 28.446L15.0943 21.5919H30.9068C31.4593 21.5919 31.9892 21.3724 32.3799 20.9817C32.7706 20.591 32.9901 20.0611 32.9901 19.5085C32.9901 18.956 32.7706 18.4261 32.3799 18.0354C31.9892 17.6447 31.4593 17.4252 30.9068 17.4252Z" fill="white" fill-opacity="0.8"/>
</svg>
