<svg width="341" height="450" viewBox="0 0 341 450" fill="none" xmlns="http://www.w3.org/2000/svg">
<mask id="mask0_1_1194" style="mask-type:alpha" maskUnits="userSpaceOnUse" x="0" y="0" width="341" height="450">
<rect width="339.998" height="450" rx="20" transform="matrix(-1 3.72117e-08 2.05385e-07 1 340.002 0)" fill="#F7F7F7"/>
<rect x="-0.25" y="0.25" width="339.498" height="449.5" rx="19.75" transform="matrix(-1 3.72117e-08 2.05385e-07 1 339.502 9.30293e-09)" stroke="#BDBDBD" stroke-opacity="0.3" stroke-width="0.5"/>
</mask>
<g mask="url(#mask0_1_1194)">
<path d="M-139 492.891C-139 492.891 -66.8192 364.826 36.2943 337.311C38.5065 336.721 40.7262 335.862 42.6511 334.731C155.056 268.697 36.7688 157.574 96.4991 80.0011C152.268 7.57316 303.356 38.6122 303.999 159.108C301.962 232.898 218.629 399.168 195.499 492.892" stroke="#865FDB" stroke-width="49.4091" stroke-miterlimit="10" stroke-linecap="round" stroke-linejoin="round"/>
</g>
</svg>
