<svg width="40" height="41" viewBox="0 0 40 41" fill="none" xmlns="http://www.w3.org/2000/svg">
<path d="M12.0833 9.78461H27.8958L5.60417 32.0554C5.21187 32.4477 4.99148 32.9798 4.99148 33.5346C4.99148 34.0894 5.21187 34.6215 5.60417 35.0138C5.99647 35.4061 6.52854 35.6265 7.08334 35.6265C7.63813 35.6265 8.1702 35.4061 8.5625 35.0138L30.8333 12.7221V28.5346C30.8333 29.0871 31.0528 29.617 31.4435 30.0077C31.8342 30.3984 32.3641 30.6179 32.9167 30.6179C33.4692 30.6179 33.9991 30.3984 34.3898 30.0077C34.7805 29.617 35 29.0871 35 28.5346V7.70128C34.9967 7.42903 34.9401 7.16007 34.8333 6.90961C34.6219 6.40055 34.2174 5.99601 33.7083 5.78461C33.4579 5.67786 33.1889 5.62123 32.9167 5.61794H12.0833C11.5308 5.61794 11.0009 5.83743 10.6102 6.22814C10.2195 6.61884 10 7.14874 10 7.70128C10 8.25381 10.2195 8.78372 10.6102 9.17442C11.0009 9.56512 11.5308 9.78461 12.0833 9.78461Z" fill="white"/>
</svg>
