<svg width="36" height="36" viewBox="0 0 36 36" fill="none" xmlns="http://www.w3.org/2000/svg">
<g id="Shape" clip-path="url(#clip0_1_778)">
<path id="Vector" d="M18.0444 35.5C17.4925 35.5 17.0259 35.1003 16.8922 34.5648C16.4662 32.858 15.6505 31.0429 14.4453 29.1199C13.0174 26.8107 10.9818 24.6689 8.33855 22.694C6.03961 20.9564 3.74067 19.7715 1.44174 19.1394C0.897259 18.9898 0.5 18.507 0.5 17.9423C0.5 17.3887 0.881978 16.9114 1.41433 16.7594C3.66829 16.1159 5.83963 15.071 7.92838 13.625C10.3286 11.954 12.3338 9.94878 13.944 7.60938C15.3685 5.52539 16.3464 3.46429 16.8776 1.42611C17.0168 0.892166 17.4868 0.5 18.0387 0.5C18.5966 0.5 19.07 0.900851 19.2057 1.44208C19.5124 2.66394 19.9915 3.9146 20.6432 5.19401C21.4636 6.77387 22.5117 8.29296 23.7878 9.7513C25.0941 11.1793 26.5526 12.4705 28.1628 13.625C30.267 15.1165 32.406 16.1644 34.5802 16.7687C35.1136 16.9169 35.5 17.3918 35.5 17.9453C35.5 18.5072 35.1019 18.986 34.5601 19.1345C33.1819 19.5124 31.7634 20.1217 30.3048 20.9622C28.5425 21.9953 26.9019 23.2257 25.3827 24.6537C23.8637 26.0512 22.6181 27.5247 21.6458 29.0742C20.4383 31.0013 19.6217 32.8304 19.1965 34.5618C19.0645 35.0989 18.5973 35.5 18.0444 35.5Z" fill="#CE3063"/>
</g>
<defs>
<clipPath id="clip0_1_778">
<rect width="35" height="35" fill="white" transform="translate(0.5 0.5)"/>
</clipPath>
</defs>
</svg>
