<svg width="170" height="41" viewBox="0 0 170 41" fill="none" xmlns="http://www.w3.org/2000/svg">
<circle cx="21" cy="20" r="16" fill="url(#paint0_radial_1_817)"/>
<path d="M17.668 26.324C16.66 26.324 15.724 26.168 14.86 25.856C14.008 25.544 13.264 25.1 12.628 24.524C12.004 23.936 11.512 23.228 11.152 22.4C10.792 21.572 10.612 20.648 10.612 19.628C10.612 18.608 10.792 17.684 11.152 16.856C11.512 16.028 12.004 15.32 12.628 14.732C13.252 14.144 13.984 13.694 14.824 13.382C15.664 13.058 16.564 12.896 17.524 12.896C18.52 12.896 19.462 13.058 20.35 13.382C21.25 13.706 21.982 14.15 22.546 14.714L20.044 17.72C19.78 17.408 19.468 17.162 19.108 16.982C18.748 16.79 18.304 16.694 17.776 16.694C17.428 16.694 17.086 16.766 16.75 16.91C16.426 17.042 16.138 17.24 15.886 17.504C15.634 17.756 15.43 18.062 15.274 18.422C15.118 18.782 15.04 19.184 15.04 19.628C15.04 20.516 15.268 21.242 15.724 21.806C16.192 22.358 16.936 22.634 17.956 22.634C18.136 22.634 18.322 22.622 18.514 22.598C18.706 22.562 18.856 22.514 18.964 22.454V21.482H16.912V18.116H22.762V25.082C22.462 25.262 22.114 25.43 21.718 25.586C21.334 25.73 20.92 25.856 20.476 25.964C20.044 26.072 19.588 26.156 19.108 26.216C18.628 26.288 18.148 26.324 17.668 26.324ZM24.6649 16.532H28.6609V17.612H28.6969C28.9009 17.228 29.2009 16.91 29.5969 16.658C30.0049 16.406 30.4789 16.28 31.0189 16.28C31.3429 16.28 31.6069 16.31 31.8109 16.37L31.4869 19.898C31.3549 19.862 31.2049 19.838 31.0369 19.826C30.8809 19.802 30.7369 19.79 30.6049 19.79C30.0649 19.79 29.6329 19.946 29.3089 20.258C28.9849 20.57 28.8229 20.954 28.8229 21.41V26H24.6649V16.532ZM37.4222 22.076C36.8102 22.076 36.3182 22.142 35.9462 22.274C35.5742 22.406 35.3882 22.652 35.3882 23.012C35.3882 23.144 35.4182 23.258 35.4782 23.354C35.5382 23.438 35.6162 23.51 35.7122 23.57C35.8082 23.63 35.9102 23.678 36.0182 23.714C36.1382 23.738 36.2462 23.75 36.3422 23.75C36.7382 23.75 37.0562 23.624 37.2962 23.372C37.5362 23.12 37.6562 22.796 37.6562 22.4V22.076H37.4222ZM37.3862 19.988C37.3862 19.7 37.2842 19.49 37.0802 19.358C36.8882 19.214 36.6302 19.142 36.3062 19.142C35.9222 19.142 35.5562 19.226 35.2082 19.394C34.8722 19.55 34.5722 19.736 34.3082 19.952L32.2382 17.9C32.8142 17.348 33.4982 16.922 34.2902 16.622C35.0822 16.322 35.8982 16.172 36.7382 16.172C37.6382 16.172 38.3822 16.298 38.9702 16.55C39.5582 16.802 40.0202 17.15 40.3562 17.594C40.7042 18.038 40.9442 18.554 41.0762 19.142C41.2202 19.73 41.2922 20.354 41.2922 21.014V26H37.5302V25.244H37.4942C37.2542 25.604 36.9122 25.862 36.4682 26.018C36.0242 26.174 35.5922 26.252 35.1722 26.252C34.8002 26.252 34.4162 26.198 34.0202 26.09C33.6362 25.982 33.2822 25.808 32.9582 25.568C32.6462 25.328 32.3882 25.016 32.1842 24.632C31.9802 24.248 31.8782 23.774 31.8782 23.21C31.8782 22.55 32.0462 22.016 32.3822 21.608C32.7302 21.188 33.1682 20.864 33.6962 20.636C34.2242 20.396 34.8122 20.234 35.4602 20.15C36.1202 20.066 36.7622 20.024 37.3862 20.024V19.988ZM48.7949 26V21.032C48.7949 20.552 48.7349 20.204 48.6149 19.988C48.4949 19.772 48.2969 19.664 48.0209 19.664C47.8169 19.664 47.6189 19.76 47.4269 19.952C47.2469 20.144 47.1569 20.486 47.1569 20.978V26H42.9989V16.532H47.0489V17.576H47.0849C47.2049 17.42 47.3489 17.27 47.5169 17.126C47.6969 16.97 47.8949 16.832 48.1109 16.712C48.3389 16.58 48.5909 16.478 48.8669 16.406C49.1429 16.322 49.4429 16.28 49.7669 16.28C50.3909 16.28 50.9309 16.394 51.3869 16.622C51.8429 16.838 52.2029 17.18 52.4669 17.648C52.7789 17.264 53.1629 16.94 53.6189 16.676C54.0749 16.412 54.6509 16.28 55.3469 16.28C56.0189 16.28 56.5709 16.412 57.0029 16.676C57.4469 16.94 57.7949 17.27 58.0469 17.666C58.3109 18.062 58.4909 18.494 58.5869 18.962C58.6949 19.418 58.7489 19.844 58.7489 20.24V26H54.5909V20.96C54.5909 20.444 54.5249 20.102 54.3929 19.934C54.2729 19.754 54.0809 19.664 53.8169 19.664C53.5769 19.664 53.3729 19.778 53.2049 20.006C53.0369 20.222 52.9529 20.546 52.9529 20.978V26H48.7949ZM66.3555 26V21.032C66.3555 20.552 66.2955 20.204 66.1755 19.988C66.0555 19.772 65.8575 19.664 65.5815 19.664C65.3775 19.664 65.1795 19.76 64.9875 19.952C64.8075 20.144 64.7175 20.486 64.7175 20.978V26H60.5595V16.532H64.6095V17.576H64.6455C64.7655 17.42 64.9095 17.27 65.0775 17.126C65.2575 16.97 65.4555 16.832 65.6715 16.712C65.8995 16.58 66.1515 16.478 66.4275 16.406C66.7035 16.322 67.0035 16.28 67.3275 16.28C67.9515 16.28 68.4915 16.394 68.9475 16.622C69.4035 16.838 69.7635 17.18 70.0275 17.648C70.3395 17.264 70.7235 16.94 71.1795 16.676C71.6355 16.412 72.2115 16.28 72.9075 16.28C73.5795 16.28 74.1315 16.412 74.5635 16.676C75.0075 16.94 75.3555 17.27 75.6075 17.666C75.8715 18.062 76.0515 18.494 76.1475 18.962C76.2555 19.418 76.3095 19.844 76.3095 20.24V26H72.1515V20.96C72.1515 20.444 72.0855 20.102 71.9535 19.934C71.8335 19.754 71.6415 19.664 71.3775 19.664C71.1375 19.664 70.9335 19.778 70.7655 20.006C70.5975 20.222 70.5135 20.546 70.5135 20.978V26H66.3555ZM83.178 22.076C82.566 22.076 82.074 22.142 81.702 22.274C81.33 22.406 81.144 22.652 81.144 23.012C81.144 23.144 81.174 23.258 81.234 23.354C81.294 23.438 81.372 23.51 81.468 23.57C81.564 23.63 81.666 23.678 81.774 23.714C81.894 23.738 82.002 23.75 82.098 23.75C82.494 23.75 82.812 23.624 83.052 23.372C83.292 23.12 83.412 22.796 83.412 22.4V22.076H83.178ZM83.142 19.988C83.142 19.7 83.04 19.49 82.836 19.358C82.644 19.214 82.386 19.142 82.062 19.142C81.678 19.142 81.312 19.226 80.964 19.394C80.628 19.55 80.328 19.736 80.064 19.952L77.994 17.9C78.57 17.348 79.254 16.922 80.046 16.622C80.838 16.322 81.654 16.172 82.494 16.172C83.394 16.172 84.138 16.298 84.726 16.55C85.314 16.802 85.776 17.15 86.112 17.594C86.46 18.038 86.7 18.554 86.832 19.142C86.976 19.73 87.048 20.354 87.048 21.014V26H83.286V25.244H83.25C83.01 25.604 82.668 25.862 82.224 26.018C81.78 26.174 81.348 26.252 80.928 26.252C80.556 26.252 80.172 26.198 79.776 26.09C79.392 25.982 79.038 25.808 78.714 25.568C78.402 25.328 78.144 25.016 77.94 24.632C77.736 24.248 77.634 23.774 77.634 23.21C77.634 22.55 77.802 22.016 78.138 21.608C78.486 21.188 78.924 20.864 79.452 20.636C79.98 20.396 80.568 20.234 81.216 20.15C81.876 20.066 82.518 20.024 83.142 20.024V19.988ZM88.7548 16.532H92.7508V17.612H92.7868C92.9908 17.228 93.2908 16.91 93.6868 16.658C94.0948 16.406 94.5688 16.28 95.1088 16.28C95.4328 16.28 95.6968 16.31 95.9008 16.37L95.5768 19.898C95.4448 19.862 95.2948 19.838 95.1268 19.826C94.9708 19.802 94.8268 19.79 94.6948 19.79C94.1548 19.79 93.7228 19.946 93.3988 20.258C93.0748 20.57 92.9128 20.954 92.9128 21.41V26H88.7548V16.532ZM103.088 26H98.9664L95.7264 16.532H100.172L101.36 21.428H101.432L102.656 16.532H106.652L107.966 21.428H108.02L109.172 16.532H113.42L110.144 26H106.004L104.546 21.14H104.51L103.088 26ZM114.296 16.532H118.454V26H114.296V16.532ZM114.224 13.796C114.224 13.508 114.278 13.238 114.386 12.986C114.506 12.722 114.662 12.494 114.854 12.302C115.058 12.11 115.292 11.96 115.556 11.852C115.82 11.732 116.102 11.672 116.402 11.672C116.69 11.672 116.96 11.732 117.212 11.852C117.464 11.96 117.686 12.11 117.878 12.302C118.082 12.494 118.238 12.722 118.346 12.986C118.466 13.238 118.526 13.508 118.526 13.796C118.526 14.096 118.466 14.378 118.346 14.642C118.238 14.894 118.082 15.116 117.878 15.308C117.686 15.488 117.464 15.632 117.212 15.74C116.96 15.848 116.69 15.902 116.402 15.902C116.102 15.902 115.82 15.848 115.556 15.74C115.292 15.632 115.058 15.488 114.854 15.308C114.662 15.116 114.506 14.894 114.386 14.642C114.278 14.378 114.224 14.096 114.224 13.796ZM128.136 22.994C128.136 23.63 127.998 24.164 127.722 24.596C127.458 25.028 127.116 25.376 126.696 25.64C126.288 25.892 125.838 26.072 125.346 26.18C124.854 26.3 124.386 26.36 123.942 26.36C123.126 26.36 122.322 26.24 121.53 26C120.75 25.772 120.072 25.442 119.496 25.01L121.53 22.652C121.818 22.916 122.154 23.132 122.538 23.3C122.934 23.456 123.312 23.534 123.672 23.534C123.816 23.534 123.948 23.51 124.068 23.462C124.2 23.402 124.266 23.3 124.266 23.156C124.266 23 124.152 22.88 123.924 22.796C123.708 22.7 123.324 22.586 122.772 22.454C122.472 22.382 122.166 22.28 121.854 22.148C121.542 22.004 121.254 21.818 120.99 21.59C120.738 21.362 120.528 21.086 120.36 20.762C120.192 20.426 120.108 20.03 120.108 19.574C120.108 18.962 120.24 18.44 120.504 18.008C120.78 17.576 121.122 17.228 121.53 16.964C121.95 16.688 122.4 16.49 122.88 16.37C123.372 16.238 123.834 16.172 124.266 16.172C124.998 16.172 125.724 16.28 126.444 16.496C127.164 16.712 127.812 17.012 128.388 17.396L126.444 19.718C126.144 19.526 125.838 19.376 125.526 19.268C125.214 19.16 124.908 19.106 124.608 19.106C124.404 19.106 124.236 19.136 124.104 19.196C123.972 19.244 123.906 19.346 123.906 19.502C123.906 19.622 123.978 19.718 124.122 19.79C124.278 19.85 124.626 19.934 125.166 20.042C125.538 20.114 125.898 20.228 126.246 20.384C126.606 20.528 126.924 20.72 127.2 20.96C127.488 21.188 127.716 21.47 127.884 21.806C128.052 22.142 128.136 22.538 128.136 22.994ZM135.906 20.006C135.906 19.67 135.78 19.394 135.528 19.178C135.288 18.962 134.958 18.854 134.538 18.854C134.082 18.854 133.728 18.98 133.476 19.232C133.224 19.484 133.08 19.742 133.044 20.006H135.906ZM139.488 21.356C139.488 21.512 139.482 21.674 139.47 21.842C139.47 21.998 139.464 22.13 139.452 22.238H133.08C133.092 22.406 133.146 22.556 133.242 22.688C133.35 22.82 133.476 22.934 133.62 23.03C133.776 23.126 133.944 23.198 134.124 23.246C134.316 23.294 134.508 23.318 134.7 23.318C135.084 23.318 135.402 23.252 135.654 23.12C135.918 22.976 136.116 22.82 136.248 22.652L139.2 24.146C138.78 24.83 138.168 25.37 137.364 25.766C136.572 26.162 135.648 26.36 134.592 26.36C133.908 26.36 133.242 26.252 132.594 26.036C131.946 25.82 131.37 25.502 130.866 25.082C130.374 24.65 129.978 24.116 129.678 23.48C129.378 22.844 129.228 22.106 129.228 21.266C129.228 20.486 129.366 19.784 129.642 19.16C129.918 18.524 130.29 17.99 130.758 17.558C131.238 17.114 131.796 16.772 132.432 16.532C133.08 16.292 133.77 16.172 134.502 16.172C135.246 16.172 135.924 16.304 136.536 16.568C137.148 16.82 137.67 17.18 138.102 17.648C138.546 18.104 138.888 18.65 139.128 19.286C139.368 19.922 139.488 20.612 139.488 21.356ZM144.724 13.256H149.278L154.246 26H149.584L148.918 24.128H144.868L144.238 26H139.702L144.724 13.256ZM146.938 17.702L145.894 20.852H147.964L146.938 17.702ZM155.153 13.256H159.473V26H155.153V13.256Z" fill="white"/>
<defs>
<radialGradient id="paint0_radial_1_817" cx="0" cy="0" r="1" gradientUnits="userSpaceOnUse" gradientTransform="translate(9 8) rotate(51.3402) scale(12.8062)">
<stop stop-color="#A8FF35"/>
<stop offset="1" stop-color="#975DE2"/>
</radialGradient>
</defs>
</svg>
